<?xml version="1.0" encoding="UTF-8" standalone="no"?>
<!-- Created with Inkscape (http://www.inkscape.org/) -->

<svg
   xmlns:dc="http://purl.org/dc/elements/1.1/"
   xmlns:cc="http://creativecommons.org/ns#"
   xmlns:rdf="http://www.w3.org/1999/02/22-rdf-syntax-ns#"
   xmlns:svg="http://www.w3.org/2000/svg"
   xmlns="http://www.w3.org/2000/svg"
   xmlns:sodipodi="http://sodipodi.sourceforge.net/DTD/sodipodi-0.dtd"
   xmlns:inkscape="http://www.inkscape.org/namespaces/inkscape"
   width="520"
   height="520"
   viewBox="0 0 137.58327 137.58334"
   version="1.1"
   id="svg8"
   inkscape:version="0.92.2 5c3e80d, 2017-08-06"
   sodipodi:docname="backCard.svg"
   inkscape:export-filename="/Users/Chin/Desktop/kingdoms/altLogo.png"
   inkscape:export-xdpi="96"
   inkscape:export-ydpi="96">
  <defs
     id="defs2">
    <marker
       inkscape:stockid="Arrow1Lstart"
       orient="auto"
       refY="0"
       refX="0"
       id="marker1176"
       style="overflow:visible"
       inkscape:isstock="true">
      <path
         id="path1174"
         d="M 0,0 5,-5 -12.5,0 5,5 Z"
         style="fill-rule:evenodd;stroke:#000000;stroke-width:1.00000003pt"
         transform="matrix(0.8,0,0,0.8,10,0)"
         inkscape:connector-curvature="0" />
    </marker>
    <marker
       inkscape:stockid="Arrow1Lstart"
       orient="auto"
       refY="0"
       refX="0"
       id="Arrow1Lstart"
       style="overflow:visible"
       inkscape:isstock="true">
      <path
         id="path899"
         d="M 0,0 5,-5 -12.5,0 5,5 Z"
         style="fill-rule:evenodd;stroke:#000000;stroke-width:1.00000003pt"
         transform="matrix(0.8,0,0,0.8,10,0)"
         inkscape:connector-curvature="0" />
    </marker>
    <clipPath
       clipPathUnits="userSpaceOnUse"
       id="clipPath4789">
      <g
         inkscape:label="Clip"
         id="use4791"
         style="fill:#01ffff;fill-opacity:1">
        <path
           id="path5003"
           transform="matrix(0.26458333,0,0,0.26458333,0.33176017,0.55500255)"
           style="fill:#01ffff;fill-opacity:1;stroke-width:1.82989693"
           d="m 259.78516,119.66016 -71.03907,50.24218 -85.34375,-25.25586 30.08204,77.56836 -0.4375,0.55664 c 0.51586,0.72666 1.02773,1.45654 1.53124,2.19141 0.31694,0.4625 0.61505,0.93875 0.91602,1.41211 1.26776,-0.69086 2.53995,-1.37396 3.83203,-2.01758 1.18145,-0.58852 2.32051,-1.69627 3.63477,-1.57422 1.93801,0.17998 3.54668,1.60272 5.32031,2.4043 -0.27576,1.07347 -0.40043,2.19822 -0.82813,3.2207 -0.1776,0.42478 -0.63044,0.67022 -0.9414,1.00977 -0.79135,0.8643 -1.52651,1.78311 -2.36524,2.60156 -0.71818,0.70081 -1.47505,1.35957 -2.24218,2.00586 3.16459,2.57284 6.31944,5.15732 9.48047,7.73438 1.07613,-0.13991 2.19503,-0.24215 3.39062,-0.26954 0.81897,-0.0188 1.63658,-0.0279 2.45508,-0.0273 5.7295,0.004 11.44465,0.48668 17.08789,1.53711 5.54978,1.03302 10.91037,2.82639 16.41016,4.06445 0.4611,-0.001 0.92285,0.0287 1.38281,-0.004 0.68463,-0.0484 1.36193,-0.17063 2.04492,-0.23828 2.34159,-0.23195 5.3701,-0.48189 7.69141,-0.58008 3.36568,-0.14238 4.83531,-0.0766 8.20703,-0.0332 5.64615,0.41425 11.36012,-0.29091 16.97851,0.53907 1.4759,0.21804 2.92362,0.60287 4.38477,0.90429 2.25526,0.80449 4.66158,1.07213 6.9375,1.79883 3.58578,1.14494 3.95127,1.51668 7.02539,2.70703 2.11522,0.81905 4.26008,1.55816 6.38867,2.3418 4.38886,1.98885 8.78988,4.10067 13.35547,5.67188 1.20758,0.41556 2.46563,0.66402 3.69336,1.01562 5.78484,1.65668 1.75084,0.63251 6.30469,1.73633 1.27366,0.46914 2.53014,0.98655 3.82031,1.4082 0.1542,0.0504 0.33325,-0.0538 0.48633,0 0.29712,0.10442 0.5963,0.21895 0.89453,0.32813 L 333.98633,248.51758 260,202 Z"
           inkscape:connector-curvature="0" />
        <a
           id="a5007"
           style="fill:#01ffff;fill-opacity:1">
          <path
             sodipodi:type="star"
             style="fill:#01ffff;fill-opacity:1;stroke-width:0.26458332"
             id="path5005"
             sodipodi:sides="5"
             sodipodi:cx="50.270836"
             sodipodi:cy="58.737499"
             sodipodi:r1="18.708866"
             sodipodi:r2="9.3544331"
             sodipodi:arg1="0.14189705"
             sodipodi:arg2="0.77021559"
             inkscape:flatsided="false"
             inkscape:rounded="0"
             inkscape:randomized="0"
             d="m 68.791668,61.383332 -11.806589,3.867565 -3.507328,11.918568 -7.32671,-10.03359 -12.419055,0.347373 7.278434,-10.068665 -4.168071,-11.70388 11.825029,3.810813 9.843047,-7.580768 0.02984,12.423877 z"
             inkscape:transform-center-x="1.8499906"
             inkscape:transform-center-y="1.4337296"
             transform="matrix(-1.8668027,0,0,1.7535671,177.87754,-41.330968)" />
        </a>
      </g>
    </clipPath>
  </defs>
  <sodipodi:namedview
     id="base"
     pagecolor="#ffffff"
     bordercolor="#666666"
     borderopacity="1.0"
     inkscape:pageopacity="0.0"
     inkscape:pageshadow="2"
     inkscape:zoom="1.2876533"
     inkscape:cx="254.99999"
     inkscape:cy="252.82667"
     inkscape:document-units="mm"
     inkscape:current-layer="layer7"
     showgrid="true"
     units="px"
     showborder="true"
     inkscape:showpageshadow="false"
     borderlayer="false"
     inkscape:window-width="1680"
     inkscape:window-height="957"
     inkscape:window-x="2"
     inkscape:window-y="4"
     inkscape:window-maximized="0"
     showguides="true"
     gridtolerance="10"
     inkscape:measure-start="240,280"
     inkscape:measure-end="-120,420">
    <inkscape:grid
       type="xygrid"
       id="grid4645" />
  </sodipodi:namedview>
  <metadata
     id="metadata5">
    <rdf:RDF>
      <cc:Work
         rdf:about="">
        <dc:format>image/svg+xml</dc:format>
        <dc:type
           rdf:resource="http://purl.org/dc/dcmitype/StillImage" />
        <dc:title />
      </cc:Work>
    </rdf:RDF>
  </metadata>
  <g
     inkscape:groupmode="layer"
     id="layer4"
     inkscape:label="eyes"
     transform="translate(0,2.1166667)"
     style="display:inline">
    <rect
       style="fill:#f5f3e7;fill-opacity:1;stroke:#aca054;stroke-width:10;stroke-linecap:butt;stroke-linejoin:round;stroke-miterlimit:0;stroke-dasharray:none;stroke-dashoffset:0;stroke-opacity:1;paint-order:stroke fill markers"
       id="rect1172"
       width="145.52083"
       height="142.875"
       x="-5.2916665"
       y="-4.7624998" />
  </g>
  <g
     inkscape:groupmode="layer"
     id="layer5"
     inkscape:label="top"
     style="display:inline">
    <rect
       y="-2.6458333"
       x="-5.2916617"
       height="142.875"
       width="145.52083"
       id="rect901"
       style="opacity:0.75;fill:#3e391b;fill-opacity:1;stroke:#3e391b;stroke-width:10;stroke-linecap:butt;stroke-linejoin:round;stroke-miterlimit:0;stroke-dasharray:none;stroke-dashoffset:0;stroke-opacity:1;paint-order:stroke fill markers" />
  </g>
  <g
     inkscape:groupmode="layer"
     id="layer6"
     inkscape:label="smallcrown"
     style="display:inline">
    <path
       inkscape:connector-curvature="0"
       id="path1042"
       d="M 116.41667,116.41667 V 97.121635 h 9.41947 9.41946 v 19.295035 19.29503 h -9.41946 -9.41947 z"
       style="fill:#fce233;fill-opacity:0;stroke-width:0.0364117" />
    <g
       id="g1095"
       transform="matrix(1.1281963,0,0,1.1372808,-14.08863,-115.1353)">
      <path
         style="fill:#fce233;fill-opacity:1;stroke-width:0.05204892"
         d="m 106.76433,125.89782 c -1.5812,-5.58997 -5.24259,-18.70212 -5.22693,-18.71866 0.0114,-0.0121 1.83858,0.76266 4.0603,1.72167 2.22173,0.95901 4.0869,1.75599 4.14484,1.77107 0.0852,0.0222 0.46369,-0.35334 1.98261,-1.96719 1.03249,-1.09703 2.58783,-2.76493 3.4563,-3.70643 l 1.57903,-1.71183 3e-5,8.88517 4e-5,8.88517 -0.72165,0.0348 c -2.27091,0.10959 -4.29005,0.61878 -5.95385,1.50146 -1.69288,0.8981 -2.90459,2.34338 -3.03036,3.61449 -0.0177,0.17908 -0.0471,0.33533 -0.0653,0.34722 -0.0182,0.0119 -0.11948,-0.28376 -0.22505,-0.65697 z"
         id="path1046"
         inkscape:connector-curvature="0" />
      <path
         inkscape:connector-curvature="0"
         id="path1048"
         d="m 126.75671,125.89782 c 1.5812,-5.58119 5.2426,-18.67276 5.22693,-18.68927 -0.0114,-0.0121 -1.83858,0.76146 -4.0603,1.71897 -2.22173,0.9575 -4.08691,1.75323 -4.14484,1.76828 -0.0852,0.0221 -0.46369,-0.35278 -1.98261,-1.9641 -1.0325,-1.09531 -2.58784,-2.76058 -3.45631,-3.70061 l -1.57903,-1.70914 -4e-5,8.87122 -3e-5,8.87122 0.72165,0.0348 c 2.27091,0.10942 4.29005,0.61782 5.95386,1.49911 1.69288,0.89669 2.90459,2.33969 3.03036,3.60882 0.0177,0.1788 0.0471,0.3348 0.0653,0.34666 0.0182,0.0119 0.11947,-0.2833 0.22504,-0.65594 z"
         style="fill:#3e391b;fill-opacity:1;stroke-width:0.05200807" />
      <path
         style="fill:#aca043;fill-opacity:1;stroke-width:0.01279198"
         d="m 115.92487,131.17385 c -3.35616,-0.15554 -6.33889,-1.18931 -7.87811,-2.73042 -0.36056,-0.36101 -0.59534,-0.68272 -0.79098,-1.08386 -0.1491,-0.3057 -0.22852,-0.55899 -0.27385,-0.87331 -0.0188,-0.13056 -0.0188,-0.15521 -2e-5,-0.30143 0.039,-0.30317 0.0915,-0.51009 0.19347,-0.76209 0.39062,-0.96545 1.31175,-1.93198 2.5239,-2.6483 0.22345,-0.13205 0.79554,-0.41706 1.09175,-0.5439 1.41346,-0.60525 3.01623,-0.97527 4.78301,-1.10422 0.27728,-0.0202 0.62126,-0.0391 0.97275,-0.0533 l 0.21369,-0.009 v 5.06198 5.06198 l -0.30299,-0.002 c -0.16664,-0.001 -0.40632,-0.007 -0.53262,-0.0125 z"
         id="path1050"
         inkscape:connector-curvature="0" />
      <path
         inkscape:connector-curvature="0"
         id="path1052"
         d="m 117.59609,131.17385 c 3.35615,-0.15554 6.33889,-1.18931 7.8781,-2.73042 0.36056,-0.36101 0.59535,-0.68272 0.79099,-1.08386 0.14909,-0.3057 0.22852,-0.55899 0.27384,-0.87331 0.0188,-0.13056 0.0188,-0.15521 3e-5,-0.30143 -0.039,-0.30317 -0.0915,-0.51009 -0.19348,-0.76209 -0.39062,-0.96545 -1.31174,-1.93198 -2.52389,-2.6483 -0.22345,-0.13205 -0.79554,-0.41706 -1.09176,-0.5439 -1.41345,-0.60525 -3.01622,-0.97527 -4.78301,-1.10422 -0.27726,-0.0202 -0.62125,-0.0391 -0.97274,-0.0533 l -0.21369,-0.009 v 5.06198 5.06198 l 0.30299,-0.002 c 0.16664,-0.001 0.40632,-0.007 0.53262,-0.0125 z"
         style="fill:#e8cf2d;fill-opacity:1;stroke-width:0.01279198" />
    </g>
    <g
       transform="matrix(1.1281963,0,0,1.1372808,-63.466242,-66.246706)"
       id="g1173">
      <path
         inkscape:connector-curvature="0"
         id="path1165"
         d="m 106.76433,125.89782 c -1.5812,-5.58997 -5.24259,-18.70212 -5.22693,-18.71866 0.0114,-0.0121 1.83858,0.76266 4.0603,1.72167 2.22173,0.95901 4.0869,1.75599 4.14484,1.77107 0.0852,0.0222 0.46369,-0.35334 1.98261,-1.96719 1.03249,-1.09703 2.58783,-2.76493 3.4563,-3.70643 l 1.57903,-1.71183 3e-5,8.88517 4e-5,8.88517 -0.72165,0.0348 c -2.27091,0.10959 -4.29005,0.61878 -5.95385,1.50146 -1.69288,0.8981 -2.90459,2.34338 -3.03036,3.61449 -0.0177,0.17908 -0.0471,0.33533 -0.0653,0.34722 -0.0182,0.0119 -0.11948,-0.28376 -0.22505,-0.65697 z"
         style="fill:#fce233;fill-opacity:1;stroke-width:0.05204892" />
      <path
         style="fill:#3e391b;fill-opacity:1;stroke-width:0.05200807"
         d="m 126.75671,125.89782 c 1.5812,-5.58119 5.2426,-18.67276 5.22693,-18.68927 -0.0114,-0.0121 -1.83858,0.76146 -4.0603,1.71897 -2.22173,0.9575 -4.08691,1.75323 -4.14484,1.76828 -0.0852,0.0221 -0.46369,-0.35278 -1.98261,-1.9641 -1.0325,-1.09531 -2.58784,-2.76058 -3.45631,-3.70061 l -1.57903,-1.70914 -4e-5,8.87122 -3e-5,8.87122 0.72165,0.0348 c 2.27091,0.10942 4.29005,0.61782 5.95386,1.49911 1.69288,0.89669 2.90459,2.33969 3.03036,3.60882 0.0177,0.1788 0.0471,0.3348 0.0653,0.34666 0.0182,0.0119 0.11947,-0.2833 0.22504,-0.65594 z"
         id="path1167"
         inkscape:connector-curvature="0" />
      <path
         inkscape:connector-curvature="0"
         id="path1169"
         d="m 115.92487,131.17385 c -3.35616,-0.15554 -6.33889,-1.18931 -7.87811,-2.73042 -0.36056,-0.36101 -0.59534,-0.68272 -0.79098,-1.08386 -0.1491,-0.3057 -0.22852,-0.55899 -0.27385,-0.87331 -0.0188,-0.13056 -0.0188,-0.15521 -2e-5,-0.30143 0.039,-0.30317 0.0915,-0.51009 0.19347,-0.76209 0.39062,-0.96545 1.31175,-1.93198 2.5239,-2.6483 0.22345,-0.13205 0.79554,-0.41706 1.09175,-0.5439 1.41346,-0.60525 3.01623,-0.97527 4.78301,-1.10422 0.27728,-0.0202 0.62126,-0.0391 0.97275,-0.0533 l 0.21369,-0.009 v 5.06198 5.06198 l -0.30299,-0.002 c -0.16664,-0.001 -0.40632,-0.007 -0.53262,-0.0125 z"
         style="fill:#aca043;fill-opacity:1;stroke-width:0.01279198" />
      <path
         style="fill:#e8cf2d;fill-opacity:1;stroke-width:0.01279198"
         d="m 117.59609,131.17385 c 3.35615,-0.15554 6.33889,-1.18931 7.8781,-2.73042 0.36056,-0.36101 0.59535,-0.68272 0.79099,-1.08386 0.14909,-0.3057 0.22852,-0.55899 0.27384,-0.87331 0.0188,-0.13056 0.0188,-0.15521 3e-5,-0.30143 -0.039,-0.30317 -0.0915,-0.51009 -0.19348,-0.76209 -0.39062,-0.96545 -1.31174,-1.93198 -2.52389,-2.6483 -0.22345,-0.13205 -0.79554,-0.41706 -1.09176,-0.5439 -1.41345,-0.60525 -3.01622,-0.97527 -4.78301,-1.10422 -0.27726,-0.0202 -0.62125,-0.0391 -0.97274,-0.0533 l -0.21369,-0.009 v 5.06198 5.06198 l 0.30299,-0.002 c 0.16664,-0.001 0.40632,-0.007 0.53262,-0.0125 z"
         id="path1171"
         inkscape:connector-curvature="0" />
    </g>
    <g
       id="g1183"
       transform="matrix(1.1281963,0,0,1.1372808,-114.26633,-114.9214)">
      <path
         style="fill:#fce233;fill-opacity:1;stroke-width:0.05204892"
         d="m 106.76433,125.89782 c -1.5812,-5.58997 -5.24259,-18.70212 -5.22693,-18.71866 0.0114,-0.0121 1.83858,0.76266 4.0603,1.72167 2.22173,0.95901 4.0869,1.75599 4.14484,1.77107 0.0852,0.0222 0.46369,-0.35334 1.98261,-1.96719 1.03249,-1.09703 2.58783,-2.76493 3.4563,-3.70643 l 1.57903,-1.71183 3e-5,8.88517 4e-5,8.88517 -0.72165,0.0348 c -2.27091,0.10959 -4.29005,0.61878 -5.95385,1.50146 -1.69288,0.8981 -2.90459,2.34338 -3.03036,3.61449 -0.0177,0.17908 -0.0471,0.33533 -0.0653,0.34722 -0.0182,0.0119 -0.11948,-0.28376 -0.22505,-0.65697 z"
         id="path1175"
         inkscape:connector-curvature="0" />
      <path
         inkscape:connector-curvature="0"
         id="path1177"
         d="m 126.75671,125.89782 c 1.5812,-5.58119 5.2426,-18.67276 5.22693,-18.68927 -0.0114,-0.0121 -1.83858,0.76146 -4.0603,1.71897 -2.22173,0.9575 -4.08691,1.75323 -4.14484,1.76828 -0.0852,0.0221 -0.46369,-0.35278 -1.98261,-1.9641 -1.0325,-1.09531 -2.58784,-2.76058 -3.45631,-3.70061 l -1.57903,-1.70914 -4e-5,8.87122 -3e-5,8.87122 0.72165,0.0348 c 2.27091,0.10942 4.29005,0.61782 5.95386,1.49911 1.69288,0.89669 2.90459,2.33969 3.03036,3.60882 0.0177,0.1788 0.0471,0.3348 0.0653,0.34666 0.0182,0.0119 0.11947,-0.2833 0.22504,-0.65594 z"
         style="fill:#3e391b;fill-opacity:1;stroke-width:0.05200807" />
      <path
         style="fill:#aca043;fill-opacity:1;stroke-width:0.01279198"
         d="m 115.92487,131.17385 c -3.35616,-0.15554 -6.33889,-1.18931 -7.87811,-2.73042 -0.36056,-0.36101 -0.59534,-0.68272 -0.79098,-1.08386 -0.1491,-0.3057 -0.22852,-0.55899 -0.27385,-0.87331 -0.0188,-0.13056 -0.0188,-0.15521 -2e-5,-0.30143 0.039,-0.30317 0.0915,-0.51009 0.19347,-0.76209 0.39062,-0.96545 1.31175,-1.93198 2.5239,-2.6483 0.22345,-0.13205 0.79554,-0.41706 1.09175,-0.5439 1.41346,-0.60525 3.01623,-0.97527 4.78301,-1.10422 0.27728,-0.0202 0.62126,-0.0391 0.97275,-0.0533 l 0.21369,-0.009 v 5.06198 5.06198 l -0.30299,-0.002 c -0.16664,-0.001 -0.40632,-0.007 -0.53262,-0.0125 z"
         id="path1179"
         inkscape:connector-curvature="0" />
      <path
         inkscape:connector-curvature="0"
         id="path1181"
         d="m 117.59609,131.17385 c 3.35615,-0.15554 6.33889,-1.18931 7.8781,-2.73042 0.36056,-0.36101 0.59535,-0.68272 0.79099,-1.08386 0.14909,-0.3057 0.22852,-0.55899 0.27384,-0.87331 0.0188,-0.13056 0.0188,-0.15521 3e-5,-0.30143 -0.039,-0.30317 -0.0915,-0.51009 -0.19348,-0.76209 -0.39062,-0.96545 -1.31174,-1.93198 -2.52389,-2.6483 -0.22345,-0.13205 -0.79554,-0.41706 -1.09176,-0.5439 -1.41345,-0.60525 -3.01622,-0.97527 -4.78301,-1.10422 -0.27726,-0.0202 -0.62125,-0.0391 -0.97274,-0.0533 l -0.21369,-0.009 v 5.06198 5.06198 l 0.30299,-0.002 c 0.16664,-0.001 0.40632,-0.007 0.53262,-0.0125 z"
         style="fill:#e8cf2d;fill-opacity:1;stroke-width:0.01279198" />
    </g>
    <g
       transform="matrix(1.1281963,0,0,1.1372808,-114.26623,-14.388374)"
       id="g1193">
      <path
         inkscape:connector-curvature="0"
         id="path1185"
         d="m 106.76433,125.89782 c -1.5812,-5.58997 -5.24259,-18.70212 -5.22693,-18.71866 0.0114,-0.0121 1.83858,0.76266 4.0603,1.72167 2.22173,0.95901 4.0869,1.75599 4.14484,1.77107 0.0852,0.0222 0.46369,-0.35334 1.98261,-1.96719 1.03249,-1.09703 2.58783,-2.76493 3.4563,-3.70643 l 1.57903,-1.71183 3e-5,8.88517 4e-5,8.88517 -0.72165,0.0348 c -2.27091,0.10959 -4.29005,0.61878 -5.95385,1.50146 -1.69288,0.8981 -2.90459,2.34338 -3.03036,3.61449 -0.0177,0.17908 -0.0471,0.33533 -0.0653,0.34722 -0.0182,0.0119 -0.11948,-0.28376 -0.22505,-0.65697 z"
         style="fill:#fce233;fill-opacity:1;stroke-width:0.05204892" />
      <path
         style="fill:#3e391b;fill-opacity:1;stroke-width:0.05200807"
         d="m 126.75671,125.89782 c 1.5812,-5.58119 5.2426,-18.67276 5.22693,-18.68927 -0.0114,-0.0121 -1.83858,0.76146 -4.0603,1.71897 -2.22173,0.9575 -4.08691,1.75323 -4.14484,1.76828 -0.0852,0.0221 -0.46369,-0.35278 -1.98261,-1.9641 -1.0325,-1.09531 -2.58784,-2.76058 -3.45631,-3.70061 l -1.57903,-1.70914 -4e-5,8.87122 -3e-5,8.87122 0.72165,0.0348 c 2.27091,0.10942 4.29005,0.61782 5.95386,1.49911 1.69288,0.89669 2.90459,2.33969 3.03036,3.60882 0.0177,0.1788 0.0471,0.3348 0.0653,0.34666 0.0182,0.0119 0.11947,-0.2833 0.22504,-0.65594 z"
         id="path1187"
         inkscape:connector-curvature="0" />
      <path
         inkscape:connector-curvature="0"
         id="path1189"
         d="m 115.92487,131.17385 c -3.35616,-0.15554 -6.33889,-1.18931 -7.87811,-2.73042 -0.36056,-0.36101 -0.59534,-0.68272 -0.79098,-1.08386 -0.1491,-0.3057 -0.22852,-0.55899 -0.27385,-0.87331 -0.0188,-0.13056 -0.0188,-0.15521 -2e-5,-0.30143 0.039,-0.30317 0.0915,-0.51009 0.19347,-0.76209 0.39062,-0.96545 1.31175,-1.93198 2.5239,-2.6483 0.22345,-0.13205 0.79554,-0.41706 1.09175,-0.5439 1.41346,-0.60525 3.01623,-0.97527 4.78301,-1.10422 0.27728,-0.0202 0.62126,-0.0391 0.97275,-0.0533 l 0.21369,-0.009 v 5.06198 5.06198 l -0.30299,-0.002 c -0.16664,-0.001 -0.40632,-0.007 -0.53262,-0.0125 z"
         style="fill:#aca043;fill-opacity:1;stroke-width:0.01279198" />
      <path
         style="fill:#e8cf2d;fill-opacity:1;stroke-width:0.01279198"
         d="m 117.59609,131.17385 c 3.35615,-0.15554 6.33889,-1.18931 7.8781,-2.73042 0.36056,-0.36101 0.59535,-0.68272 0.79099,-1.08386 0.14909,-0.3057 0.22852,-0.55899 0.27384,-0.87331 0.0188,-0.13056 0.0188,-0.15521 3e-5,-0.30143 -0.039,-0.30317 -0.0915,-0.51009 -0.19348,-0.76209 -0.39062,-0.96545 -1.31174,-1.93198 -2.52389,-2.6483 -0.22345,-0.13205 -0.79554,-0.41706 -1.09176,-0.5439 -1.41345,-0.60525 -3.01622,-0.97527 -4.78301,-1.10422 -0.27726,-0.0202 -0.62125,-0.0391 -0.97274,-0.0533 l -0.21369,-0.009 v 5.06198 5.06198 l 0.30299,-0.002 c 0.16664,-0.001 0.40632,-0.007 0.53262,-0.0125 z"
         id="path1191"
         inkscape:connector-curvature="0" />
    </g>
    <g
       id="g1203"
       transform="matrix(1.1281963,0,0,1.1372808,-13.889783,-14.064505)">
      <path
         style="fill:#fce233;fill-opacity:1;stroke-width:0.05204892"
         d="m 106.76433,125.89782 c -1.5812,-5.58997 -5.24259,-18.70212 -5.22693,-18.71866 0.0114,-0.0121 1.83858,0.76266 4.0603,1.72167 2.22173,0.95901 4.0869,1.75599 4.14484,1.77107 0.0852,0.0222 0.46369,-0.35334 1.98261,-1.96719 1.03249,-1.09703 2.58783,-2.76493 3.4563,-3.70643 l 1.57903,-1.71183 3e-5,8.88517 4e-5,8.88517 -0.72165,0.0348 c -2.27091,0.10959 -4.29005,0.61878 -5.95385,1.50146 -1.69288,0.8981 -2.90459,2.34338 -3.03036,3.61449 -0.0177,0.17908 -0.0471,0.33533 -0.0653,0.34722 -0.0182,0.0119 -0.11948,-0.28376 -0.22505,-0.65697 z"
         id="path1195"
         inkscape:connector-curvature="0" />
      <path
         inkscape:connector-curvature="0"
         id="path1197"
         d="m 126.75671,125.89782 c 1.5812,-5.58119 5.2426,-18.67276 5.22693,-18.68927 -0.0114,-0.0121 -1.83858,0.76146 -4.0603,1.71897 -2.22173,0.9575 -4.08691,1.75323 -4.14484,1.76828 -0.0852,0.0221 -0.46369,-0.35278 -1.98261,-1.9641 -1.0325,-1.09531 -2.58784,-2.76058 -3.45631,-3.70061 l -1.57903,-1.70914 -4e-5,8.87122 -3e-5,8.87122 0.72165,0.0348 c 2.27091,0.10942 4.29005,0.61782 5.95386,1.49911 1.69288,0.89669 2.90459,2.33969 3.03036,3.60882 0.0177,0.1788 0.0471,0.3348 0.0653,0.34666 0.0182,0.0119 0.11947,-0.2833 0.22504,-0.65594 z"
         style="fill:#3e391b;fill-opacity:1;stroke-width:0.05200807" />
      <path
         style="fill:#aca043;fill-opacity:1;stroke-width:0.01279198"
         d="m 115.92487,131.17385 c -3.35616,-0.15554 -6.33889,-1.18931 -7.87811,-2.73042 -0.36056,-0.36101 -0.59534,-0.68272 -0.79098,-1.08386 -0.1491,-0.3057 -0.22852,-0.55899 -0.27385,-0.87331 -0.0188,-0.13056 -0.0188,-0.15521 -2e-5,-0.30143 0.039,-0.30317 0.0915,-0.51009 0.19347,-0.76209 0.39062,-0.96545 1.31175,-1.93198 2.5239,-2.6483 0.22345,-0.13205 0.79554,-0.41706 1.09175,-0.5439 1.41346,-0.60525 3.01623,-0.97527 4.78301,-1.10422 0.27728,-0.0202 0.62126,-0.0391 0.97275,-0.0533 l 0.21369,-0.009 v 5.06198 5.06198 l -0.30299,-0.002 c -0.16664,-0.001 -0.40632,-0.007 -0.53262,-0.0125 z"
         id="path1199"
         inkscape:connector-curvature="0" />
      <path
         inkscape:connector-curvature="0"
         id="path1201"
         d="m 117.59609,131.17385 c 3.35615,-0.15554 6.33889,-1.18931 7.8781,-2.73042 0.36056,-0.36101 0.59535,-0.68272 0.79099,-1.08386 0.14909,-0.3057 0.22852,-0.55899 0.27384,-0.87331 0.0188,-0.13056 0.0188,-0.15521 3e-5,-0.30143 -0.039,-0.30317 -0.0915,-0.51009 -0.19348,-0.76209 -0.39062,-0.96545 -1.31174,-1.93198 -2.52389,-2.6483 -0.22345,-0.13205 -0.79554,-0.41706 -1.09176,-0.5439 -1.41345,-0.60525 -3.01622,-0.97527 -4.78301,-1.10422 -0.27726,-0.0202 -0.62125,-0.0391 -0.97274,-0.0533 l -0.21369,-0.009 v 5.06198 5.06198 l 0.30299,-0.002 c 0.16664,-0.001 0.40632,-0.007 0.53262,-0.0125 z"
         style="fill:#e8cf2d;fill-opacity:1;stroke-width:0.01279198" />
    </g>
  </g>
  <g
     inkscape:groupmode="layer"
     id="layer7"
     inkscape:label="top 1">
    <rect
       style="display:inline;opacity:0.55;fill:#3e391b;fill-opacity:1;stroke:#3e391b;stroke-width:10;stroke-linecap:butt;stroke-linejoin:round;stroke-miterlimit:0;stroke-dasharray:none;stroke-dashoffset:0;stroke-opacity:1;paint-order:stroke fill markers"
       id="rect1206"
       width="145.52083"
       height="142.875"
       x="-5.2916617"
       y="-2.6458333" />
  </g>
</svg>
