<?xml version="1.0" encoding="UTF-8" standalone="no"?>
<!-- Created with Inkscape (http://www.inkscape.org/) -->

<svg
   xmlns:dc="http://purl.org/dc/elements/1.1/"
   xmlns:cc="http://creativecommons.org/ns#"
   xmlns:rdf="http://www.w3.org/1999/02/22-rdf-syntax-ns#"
   xmlns:svg="http://www.w3.org/2000/svg"
   xmlns="http://www.w3.org/2000/svg"
   xmlns:sodipodi="http://sodipodi.sourceforge.net/DTD/sodipodi-0.dtd"
   xmlns:inkscape="http://www.inkscape.org/namespaces/inkscape"
   width="210mm"
   height="297mm"
   viewBox="0 0 210 297"
   version="1.1"
   id="svg33"
   inkscape:version="0.92.2 (5c3e80d, 2017-08-06)"
   sodipodi:docname="dragon.svg">
  <defs
     id="defs27" />
  <sodipodi:namedview
     id="base"
     pagecolor="#ffffff"
     bordercolor="#666666"
     borderopacity="1.0"
     inkscape:pageopacity="0.0"
     inkscape:pageshadow="2"
     inkscape:zoom="1.4"
     inkscape:cx="414.91771"
     inkscape:cy="959.44303"
     inkscape:document-units="mm"
     inkscape:current-layer="layer8"
     showgrid="true"
     inkscape:window-width="1366"
     inkscape:window-height="705"
     inkscape:window-x="-8"
     inkscape:window-y="-8"
     inkscape:window-maximized="1">
    <inkscape:grid
       type="xygrid"
       id="grid23" />
  </sodipodi:namedview>
  <metadata
     id="metadata30">
    <rdf:RDF>
      <cc:Work
         rdf:about="">
        <dc:format>image/svg+xml</dc:format>
        <dc:type
           rdf:resource="http://purl.org/dc/dcmitype/StillImage" />
        <dc:title />
      </cc:Work>
    </rdf:RDF>
  </metadata>
  <g
     inkscape:groupmode="layer"
     id="layer8"
     inkscape:label="background">
    <rect
       style="fill:#241c1c;stroke-width:0.20665908"
       id="rect322"
       width="58.39732"
       height="65.011894"
       x="84.288681"
       y="23.723213" />
  </g>
  <g
     inkscape:groupmode="layer"
     id="layer6"
     inkscape:label="head">
    <path
       style="fill:#ff0000;stroke-width:0.20635357"
       d="m 113.51616,74.517794 c 0.005,-13.541774 0.0175,-13.951299 0.44562,-14.410343 0.31314,-0.335783 0.44235,-0.773179 0.44665,-1.511903 0.007,-1.24905 0.61614,-4.793589 1.5745,-9.165923 1.33222,-6.077998 4.32144,-18.902302 4.95577,-21.26116 0.99554,-3.702007 1.12708,-4.050469 1.43245,-3.794468 0.19804,0.166027 0.26525,3.356077 0.26525,12.591618 0,6.803091 0.0507,12.367352 0.11266,12.365026 0.062,-0.0024 0.97092,-1.129112 2.01989,-2.503963 6.72238,-8.810731 11.10256,-14.274758 12.42832,-15.50362 l 0.85471,-0.792242 0.01,0.687564 c 0.0155,1.152253 -0.57818,2.758882 -6.31815,17.098762 -3.45694,8.636267 -5.49059,13.317942 -6.52113,15.012281 -0.27482,0.451842 -0.98525,2.441818 -1.57873,4.422174 -1.56327,5.216326 -3.36374,9.524098 -5.992,14.336273 -1.3462,2.464819 -3.82246,6.367796 -4.04007,6.367796 -0.055,0 -0.0978,-6.272043 -0.095,-13.937872 z"
       id="path165"
       inkscape:connector-curvature="0" />
    <path
       style="fill:#ff0000;stroke-width:0.28889498"
       id="path198"
       sodipodi:type="arc"
       sodipodi:cx="-59.819965"
       sodipodi:cy="-114.93065"
       sodipodi:rx="4.8191962"
       sodipodi:ry="4.0556641"
       sodipodi:start="0"
       sodipodi:end="3.1374388"
       d="m -55.000769,-114.93065 a 4.8191962,4.0556641 0 0 1 -4.809187,4.05566 4.8191962,4.0556641 0 0 1 -4.829164,-4.03881 l 4.819155,-0.0169 z"
       transform="matrix(0,-1,-1,0,0,0)" />
    <path
       style="fill:#ffff00;stroke-width:0.20635357"
       d="m 113.51616,74.517794 c -0.005,-13.54178 -0.0175,-13.951304 -0.44563,-14.410349 -0.31314,-0.335782 -0.44235,-0.773178 -0.44665,-1.511903 -0.007,-1.24905 -0.61614,-4.793588 -1.5745,-9.165923 -1.33222,-6.077998 -4.32144,-18.902302 -4.95577,-21.26116 -0.99554,-3.702007 -1.12708,-4.050469 -1.43245,-3.794468 -0.19804,0.166027 -0.26524,3.356077 -0.26524,12.591617 0,6.803091 -0.0507,12.367353 -0.11267,12.365027 -0.062,-0.0024 -0.97092,-1.129112 -2.01989,-2.503963 C 95.540981,38.01594 91.160802,32.551914 89.835045,31.323052 l -0.854711,-0.792242 -0.0095,0.687564 c -0.0155,1.152253 0.578177,2.758882 6.31815,17.098762 3.456938,8.636267 5.490586,13.317942 6.521126,15.012278 0.27482,0.45185 0.98525,2.44182 1.57873,4.42218 1.56327,5.21632 3.36375,9.5241 5.992,14.33627 1.3462,2.46482 3.82246,6.3678 4.04007,6.3678 0.055,0 0.0978,-6.27205 0.095,-13.93787 z"
       id="path165-1"
       inkscape:connector-curvature="0" />
    <path
       style="fill:#ffff00;stroke-width:0.28889498"
       id="path198-2"
       sodipodi:type="arc"
       sodipodi:cx="-59.819962"
       sodipodi:cy="112.10166"
       sodipodi:rx="4.8191962"
       sodipodi:ry="4.0556641"
       sodipodi:start="0"
       sodipodi:end="3.1374388"
       d="m -55.000765,112.10166 a 4.8191962,4.0556641 0 0 1 -4.809187,4.05566 4.8191962,4.0556641 0 0 1 -4.829164,-4.03881 l 4.819154,-0.0169 z"
       transform="rotate(-90)" />
    <path
       style="fill:#ff0000;stroke-width:0.28889498"
       id="path245"
       d="m 120.53435,53.231856 c -0.06,0.135313 -0.16957,0.249314 -0.26347,0.368832 -0.0922,0.115247 -0.19242,0.224703 -0.30332,0.32762 -0.15383,0.130173 -0.26249,0.29015 -0.41619,0.419746 0,0 -0.76183,0.25971 -0.76183,0.25971 v 0 c 0.0306,-0.01947 0.0646,-0.03572 0.0919,-0.05846 0.12616,-0.105177 0.19334,-0.253881 0.32783,-0.35407 0.10992,-0.100397 0.20629,-0.205719 0.30278,-0.314781 0.0875,-0.117078 0.19796,-0.223975 0.26501,-0.350292 0,0 0.75726,-0.298302 0.75726,-0.298302 z"
       inkscape:connector-curvature="0" />
    <rect
       style="fill:#ff0000;stroke-width:0.90438432"
       id="rect251"
       width="2.7601049"
       height="9.7328863"
       x="113.52242"
       y="55.284225" />
  </g>
  <g
     inkscape:groupmode="layer"
     id="layer7"
     inkscape:label="eyes">
    <path
       sodipodi:type="star"
       style="fill:#ff0000;stroke-width:0.26458332"
       id="path228"
       sodipodi:sides="3"
       sodipodi:cx="38.553574"
       sodipodi:cy="42.999996"
       sodipodi:r1="6.0946832"
       sodipodi:r2="3.0473416"
       sodipodi:arg1="0.51914611"
       sodipodi:arg2="1.5663437"
       inkscape:flatsided="true"
       inkscape:rounded="1"
       inkscape:randomized="0"
       d="m 43.84524,46.023806 c -5.237391,9.165436 -5.237391,9.165436 -10.556196,0.047 -5.318804,-9.118432 -5.318804,-9.118432 5.237392,-9.165436 10.556196,-0.047 10.556196,-0.047 5.318804,9.118433 z"
       inkscape:transform-center-x="1.8129437"
       inkscape:transform-center-y="1.0726928"
       transform="matrix(0.40638644,0.5162105,-0.00504061,0.75739297,91.329326,12.659405)" />
    <path
       sodipodi:type="star"
       style="fill:#ffff00;stroke-width:0.26458332"
       id="path228-0"
       sodipodi:sides="3"
       sodipodi:cx="38.553574"
       sodipodi:cy="42.999996"
       sodipodi:r1="6.0946832"
       sodipodi:r2="3.0473416"
       sodipodi:arg1="0.51914611"
       sodipodi:arg2="1.5663437"
       inkscape:flatsided="true"
       inkscape:rounded="1"
       inkscape:randomized="0"
       d="m 43.84524,46.023806 c -5.237391,9.165436 -5.237391,9.165436 -10.556196,0.047 -5.318804,-9.118432 -5.318804,-9.118432 5.237392,-9.165436 10.556196,-0.047 10.556196,-0.047 5.318804,9.118433 z"
       inkscape:transform-center-x="-1.8129458"
       inkscape:transform-center-y="1.0726928"
       transform="matrix(-0.40638645,0.5162105,0.00504061,0.75739297,135.03509,12.537395)" />
    <path
       style="fill:#ff0000;stroke-width:0.28889498"
       id="path269"
       sodipodi:type="arc"
       sodipodi:cx="111.26283"
       sodipodi:cy="75.799026"
       sodipodi:rx="1.1152507"
       sodipodi:ry="1.0690781"
       sodipodi:start="0"
       sodipodi:end="3.1374388"
       d="m 112.37808,75.799026 a 1.1152507,1.0690781 0 0 1 -1.11293,1.069076 1.1152507,1.0690781 0 0 1 -1.11756,-1.064635 l 1.11524,-0.0044 z" />
    <path
       style="fill:#ffff00;stroke-width:0.28889498"
       id="path269-1"
       sodipodi:type="arc"
       sodipodi:cx="115.71922"
       sodipodi:cy="75.727371"
       sodipodi:rx="1.1152507"
       sodipodi:ry="1.0690781"
       sodipodi:start="0"
       sodipodi:end="3.1374388"
       d="m 116.83447,75.727371 a 1.1152507,1.0690781 0 0 1 -1.11293,1.069076 1.1152507,1.0690781 0 0 1 -1.11756,-1.064635 l 1.11524,-0.0044 z" />
    <path
       style="fill:#ff0000;stroke-width:0.20883282"
       id="path290"
       d="m 112.25412,73.988627 c -0.0961,0.373086 -0.24766,0.70508 -0.38804,1.036728 -0.0913,0.21586 -0.17666,0.439055 -0.2769,0.644527 -0.26622,0.54574 -0.56498,1.048499 -0.84757,1.57261 -1.06654,1.974201 -2.33587,3.620685 -3.64712,5.153363 -0.66559,0.629243 -1.00066,0.984758 -1.75545,1.496698 -0.37855,0.256749 -1.12011,0.572902 -1.52582,0.688043 -0.70422,0.199859 -0.84082,0.146376 -1.55777,0.140801 -0.27701,-0.07034 -0.55842,-0.105286 -0.83104,-0.211008 -1.41375,-0.548261 -2.597112,-1.869146 -3.540583,-3.625077 -0.278926,-0.519118 -0.510517,-1.099196 -0.765776,-1.648796 -0.213143,-0.65454 -0.453849,-1.287793 -0.639428,-1.963619 -0.400523,-1.458579 -0.656027,-2.997163 -0.911453,-4.531092 -0.393287,-2.361835 -0.7192,-4.749697 -1.056337,-7.133159 -0.38904,-2.453402 -0.77073,-4.975492 -1.68839,-7.082774 -0.454819,-1.044435 -0.568539,-1.108432 -1.141947,-1.903621 -0.549471,-0.609505 -1.045628,-1.054391 -1.73497,-1.012243 -0.710871,0.04346 -1.355208,0.52778 -1.994045,0.971941 -0.204158,0.176387 -0.411234,0.344342 -0.612475,0.529164 -0.08356,0.07674 -0.160427,0.170926 -0.241245,0.254902 -0.164436,0.170866 -0.3299,0.339178 -0.494513,0.509612 -0.04284,0.04436 -0.665611,0.690099 -0.744358,0.782632 -0.08821,0.103653 -0.168842,0.222967 -0.253264,0.334452 -0.257901,0.385746 -0.140089,0.194529 -0.356141,0.569325 0,0 -0.37025,0.249084 -0.37025,0.249084 v 0 c 0.218488,-0.383458 0.09932,-0.188198 0.360291,-0.581369 0.08533,-0.114501 0.166387,-0.23771 0.255963,-0.343503 0.0746,-0.0881 0.718124,-0.751872 0.755578,-0.790557 0.647725,-0.669054 1.299493,-1.332955 1.990757,-1.882187 0.644235,-0.442198 1.293854,-0.921838 2.009928,-0.953593 0.695227,-0.03084 1.19045,0.427551 1.739437,1.052079 0.574578,0.81463 0.679811,0.868875 1.134197,1.932008 0.911267,2.132105 1.282702,4.649714 1.669143,7.119789 0.330653,2.386143 0.655167,4.773036 1.051754,7.133961 0.255766,1.522595 0.514822,3.067976 0.915943,4.514723 0.186336,0.67207 0.428227,1.3008 0.642341,1.951199 0.255324,0.54647 0.486613,1.124127 0.765972,1.639408 0.938591,1.731248 2.148301,3.047818 3.549661,3.573346 0.2726,0.102227 0.55361,0.133919 0.83042,0.20088 0.26371,-2.65e-4 0.52789,0.02474 0.79109,-0.0011 0.79422,-0.07785 1.536,-0.431556 2.28245,-0.847187 0.14049,-0.07823 0.28543,-0.141838 0.41816,-0.249465 0.24639,-0.199795 0.47692,-0.446458 0.71539,-0.669687 1.30951,-1.525453 2.57883,-3.163819 3.64155,-5.135034 0.14842,-0.277256 0.29652,-0.554955 0.44526,-0.83177 0.13034,-0.24256 0.26934,-0.473641 0.39196,-0.726348 0.0986,-0.203141 0.18141,-0.424775 0.27052,-0.638886 0.13453,-0.323268 0.27756,-0.64806 0.37538,-1.00583 0,0 0.37174,-0.283416 0.37174,-0.283416 z"
       inkscape:connector-curvature="0" />
    <path
       style="fill:#ffff00;stroke-width:0.20883283"
       id="path290-6"
       d="m 114.94183,73.850226 c 0.0961,0.373086 0.24766,0.70508 0.38804,1.036728 0.0913,0.21586 0.17667,0.439054 0.27691,0.644526 0.26622,0.545741 0.56498,1.0485 0.84757,1.572611 1.06653,1.9742 2.33586,3.620685 3.64712,5.153363 0.66559,0.629243 1.00065,0.984758 1.75544,1.496698 0.37856,0.256749 1.12011,0.572902 1.52583,0.688043 0.70421,0.199859 0.84082,0.146376 1.55777,0.140801 0.27701,-0.07034 0.55843,-0.105286 0.83104,-0.211008 1.41376,-0.548262 2.59712,-1.869146 3.54059,-3.625077 0.27892,-0.519118 0.51052,-1.099196 0.76577,-1.648796 0.21315,-0.65454 0.45385,-1.287793 0.63943,-1.963619 0.40053,-1.458579 0.65603,-2.997164 0.91145,-4.531092 0.39329,-2.361835 0.71921,-4.749697 1.05634,-7.13316 0.38905,-2.453401 0.77074,-4.975491 1.6884,-7.082773 0.45481,-1.044435 0.56853,-1.108432 1.14194,-1.903621 0.54947,-0.609505 1.04563,-1.054391 1.73497,-1.012243 0.71087,0.04346 1.3552,0.52778 1.99404,0.971941 0.20416,0.176387 0.41123,0.344342 0.61248,0.529164 0.0836,0.07674 0.16042,0.170926 0.24124,0.254902 0.16445,0.170866 0.3299,0.339178 0.49452,0.509612 0.0428,0.04436 0.6656,0.690099 0.74435,0.782632 0.0882,0.103653 0.16884,0.222967 0.25326,0.334452 0.25792,0.385746 0.1401,0.194529 0.35615,0.569325 0,0 0.37025,0.249084 0.37025,0.249084 v 0 c -0.21849,-0.383458 -0.0993,-0.188198 -0.36029,-0.581369 -0.0854,-0.114501 -0.16639,-0.23771 -0.25597,-0.343503 -0.0746,-0.0881 -0.71812,-0.751872 -0.75557,-0.790557 -0.64773,-0.669054 -1.2995,-1.332955 -1.99076,-1.882187 -0.64424,-0.442198 -1.29385,-0.921838 -2.00993,-0.953593 -0.69522,-0.03084 -1.19044,0.427551 -1.73943,1.052079 -0.57458,0.81463 -0.67982,0.868875 -1.1342,1.932008 -0.91127,2.132105 -1.2827,4.649714 -1.66915,7.119788 -0.33065,2.386143 -0.65517,4.773036 -1.05175,7.133961 -0.25576,1.522595 -0.51482,3.067976 -0.91594,4.514724 -0.18634,0.67207 -0.42823,1.3008 -0.64234,1.951199 -0.25533,0.546469 -0.48662,1.124127 -0.76598,1.639408 -0.93858,1.731248 -2.14829,3.047817 -3.54965,3.573346 -0.27259,0.102227 -0.55362,0.133919 -0.83043,0.20088 -0.26371,-2.65e-4 -0.52789,0.02474 -0.7911,-0.0011 -0.79421,-0.07785 -1.536,-0.431556 -2.28245,-0.847185 -0.14049,-0.07823 -0.28542,-0.141838 -0.41815,-0.249465 -0.2464,-0.199795 -0.47693,-0.446458 -0.71539,-0.669687 -1.30951,-1.525454 -2.57884,-3.16382 -3.64156,-5.135035 -0.14841,-0.277256 -0.29651,-0.554955 -0.44525,-0.83177 -0.13035,-0.24256 -0.26935,-0.473641 -0.39197,-0.726348 -0.0986,-0.203141 -0.18141,-0.424775 -0.27051,-0.638886 -0.13453,-0.323268 -0.27756,-0.64806 -0.37538,-1.00583 0,0 -0.37175,-0.283416 -0.37175,-0.283416 z"
       inkscape:connector-curvature="0" />
  </g>
  <g
     inkscape:label="horns"
     inkscape:groupmode="layer"
     id="layer1" />
</svg>
