<?xml version="1.0" encoding="UTF-8" standalone="no"?>
<!-- Created with Inkscape (http://www.inkscape.org/) -->

<svg
   xmlns:dc="http://purl.org/dc/elements/1.1/"
   xmlns:cc="http://creativecommons.org/ns#"
   xmlns:rdf="http://www.w3.org/1999/02/22-rdf-syntax-ns#"
   xmlns:svg="http://www.w3.org/2000/svg"
   xmlns="http://www.w3.org/2000/svg"
   xmlns:sodipodi="http://sodipodi.sourceforge.net/DTD/sodipodi-0.dtd"
   xmlns:inkscape="http://www.inkscape.org/namespaces/inkscape"
   width="210mm"
   height="297mm"
   viewBox="0 0 210 297"
   version="1.1"
   id="svg8"
   inkscape:version="0.92.2 (5c3e80d, 2017-08-06)"
   sodipodi:docname="elf.svg">
  <defs
     id="defs2" />
  <sodipodi:namedview
     id="base"
     pagecolor="#ffffff"
     bordercolor="#666666"
     borderopacity="1.0"
     inkscape:pageopacity="0.0"
     inkscape:pageshadow="2"
     inkscape:zoom="1.4"
     inkscape:cx="400"
     inkscape:cy="900.20916"
     inkscape:document-units="mm"
     inkscape:current-layer="layer5"
     showgrid="false"
     inkscape:measure-start="457.262,902.066"
     inkscape:measure-end="718.218,903.076"
     inkscape:window-width="1366"
     inkscape:window-height="705"
     inkscape:window-x="-8"
     inkscape:window-y="-8"
     inkscape:window-maximized="1" />
  <metadata
     id="metadata5">
    <rdf:RDF>
      <cc:Work
         rdf:about="">
        <dc:format>image/svg+xml</dc:format>
        <dc:type
           rdf:resource="http://purl.org/dc/dcmitype/StillImage" />
        <dc:title />
      </cc:Work>
    </rdf:RDF>
  </metadata>
  <g
     inkscape:groupmode="layer"
     id="layer5"
     inkscape:label="background">
    <rect
       style="fill:#2b2200;stroke-width:0.17566"
       id="rect25"
       width="81.050407"
       height="51.548801"
       x="42.358829"
       y="31.705662"
       ry="0" />
  </g>
  <g
     inkscape:label="Layer 1"
     inkscape:groupmode="layer"
     id="layer1">
    <path
       style="fill:#ffcc00;stroke-width:0.22656611"
       id="path64-2"
       sodipodi:type="arc"
       sodipodi:cx="55.096436"
       sodipodi:cy="-82.860947"
       sodipodi:rx="18.307962"
       sodipodi:ry="14.012658"
       sodipodi:start="0"
       sodipodi:end="3.1374316"
       d="m 73.404398,-82.860947 a 18.307962,14.012658 0 0 1 -18.269872,14.012628 18.307962,14.012658 0 0 1 -18.345894,-13.95432 l 18.307804,-0.05831 z"
       transform="rotate(90)" />
  </g>
  <g
     inkscape:groupmode="layer"
     id="layer2"
     inkscape:label="ears">
    <path
       sodipodi:type="star"
       style="fill:#ffcc00;stroke-width:0.26458332"
       id="path112-4-0"
       sodipodi:sides="3"
       sodipodi:cx="-157.2213"
       sodipodi:cy="-19.574232"
       sodipodi:r1="5.3453903"
       sodipodi:r2="2.6726952"
       sodipodi:arg1="0"
       sodipodi:arg2="1.0471976"
       inkscape:flatsided="true"
       inkscape:rounded="1"
       inkscape:randomized="0"
       d="m -151.87591,-19.574232 c 0,9.258488 0,9.258488 -8.01808,4.629244 -8.01809,-4.629244 -8.01809,-4.629244 0,-9.258488 8.01808,-4.629244 8.01808,-4.629244 8.01808,4.629244 z"
       inkscape:transform-center-x="2.3551797"
       transform="matrix(1.57972,-0.44587102,-0.14602194,-0.96218587,311.75548,-32.791056)"
       inkscape:transform-center-y="-1.5814223" />
    <path
       style="fill:#008000;stroke-width:0.22886635"
       d="m 82.860946,55.096437 v -18.19356 h 0.94856 c 0.521701,0 1.62815,0.237035 2.458764,0.526743 6.176862,2.15442 10.362481,9.220237 10.374836,17.513948 0.0044,3.092987 -0.287052,4.75792 -1.378019,7.866415 -1.995354,5.685369 -6.194194,9.522687 -11.277249,10.306297 l -1.126892,0.17371 z"
       id="path42"
       inkscape:connector-curvature="0" />
    <path
       style="fill:#008000;stroke-width:0.22886635"
       d="m 93.172383,61.663303 c -0.811907,-0.262069 -1.53399,-1.165383 -1.662085,-2.079257 -0.19552,-1.39483 0.884289,-8.998715 1.549277,-10.909812 0.682065,-1.960176 2.068551,-1.9865 5.315218,-0.100916 4.113797,2.389189 14.075487,9.299755 14.955847,10.37508 l 0.87354,1.066993 -0.72261,0.418206 c -1.69092,0.978604 -18.023398,1.967523 -20.309187,1.229706 z"
       id="path44"
       inkscape:connector-curvature="0" />
  </g>
  <g
     inkscape:groupmode="layer"
     id="layer3"
     inkscape:label="hair">
    <path
       style="fill:#ffcc00;stroke-width:0.22656611"
       id="path47"
       d="m 82.00214,36.331116 c 0.630643,-0.316166 1.210287,-0.789572 1.844853,-1.093343 0.292546,-0.140044 0.89888,-0.361106 1.194557,-0.472601 1.320044,-0.382633 2.668875,-0.523201 4.014649,-0.598091 0.786844,-0.02896 1.653044,-0.07393 2.363357,0.474237 0.142592,0.110048 0.26991,0.253404 0.404876,0.380105 1.057534,0.953664 1.777937,2.217854 2.453,3.65424 0.78033,1.661388 1.51247,3.371469 2.149073,5.143733 0.636019,1.780595 1.184097,3.622265 1.519227,5.551683 0.222068,1.28519 0.319478,2.596108 0.446892,3.902083 0.170651,0.97818 0.376397,1.95403 0.636969,2.895515 0.200785,0.597297 0.29326,1.236475 0.377514,1.878449 0.230517,1.25194 0.385238,2.528785 0.545514,3.80093 0.108659,1.230149 0.399029,2.31996 0.814039,3.411061 0.40796,0.815166 0.83739,1.702806 1.4698,2.228713 0.12773,0.106217 0.26725,0.183496 0.40087,0.275243 1.2467,0.558149 2.57512,0.562703 3.87356,0.610696 1.51409,0.0026 3.0336,0.11598 4.5381,-0.15384 1.04351,-0.244631 1.9963,-0.829042 2.9306,-1.479224 0,0 -2.21861,2.418408 -2.21861,2.418408 v 0 c -0.94275,0.61763 -1.91499,1.143127 -2.95898,1.341326 -1.51297,0.204269 -3.0335,0.113115 -4.55183,0.101217 -1.34299,-0.04451 -2.72147,-0.06267 -3.9959,-0.71129 -0.14288,-0.10812 -0.292084,-0.202007 -0.428661,-0.324356 -0.653414,-0.585345 -1.101221,-1.515628 -1.535924,-2.376686 -0.437301,-1.147347 -0.739298,-2.227037 -0.850345,-3.52416 -0.144834,-1.266954 -0.29469,-2.542455 -0.578002,-3.767518 -0.08831,-0.617493 -0.180329,-1.237229 -0.353283,-1.823117 -0.25153,-0.979569 -0.459648,-1.985497 -0.634406,-2.995192 -0.118781,-1.298961 -0.243081,-2.596213 -0.413942,-3.884726 -0.301596,-1.911501 -0.803828,-3.750902 -1.460948,-5.489503 -0.656178,-1.742112 -1.347433,-3.465002 -2.136938,-5.102241 -0.679882,-1.37871 -1.384659,-2.590316 -2.434279,-3.482642 -0.126936,-0.10491 -0.247295,-0.226293 -0.380802,-0.314735 -0.697401,-0.461991 -1.519728,-0.369737 -2.268846,-0.360839 -1.332348,0.07994 -2.67213,0.207526 -3.968327,0.66412 -0.448293,0.180243 -0.746654,0.286354 -1.181836,0.515533 -0.645836,0.340114 -1.253191,0.803053 -1.894268,1.158687 0,0 2.268677,-2.451875 2.268677,-2.451875 z"
       inkscape:connector-curvature="0" />
    <path
       style="fill:#ffcc00;stroke-width:0.22656611"
       id="path49"
       d="m 82.802638,36.788631 c 1.173286,0.01439 2.342296,0.172625 3.511168,0.29895 1.560014,0.267099 3.127866,0.747622 4.567777,1.631151 0.288624,0.177101 0.565793,0.387056 0.848696,0.580586 0.939846,0.658974 1.886581,1.419812 2.57454,2.542738 0.413271,0.674561 0.619139,1.254072 0.940414,2.022372 0.927388,2.525392 1.657478,5.179134 2.344705,7.840575 0.430639,1.549553 0.775656,3.140998 1.233342,4.677206 0.188666,0.633225 0.537606,1.66501 0.743257,2.283079 0.628573,1.902648 1.226763,3.82301 1.861963,5.721588 0.31372,0.947137 0.47679,1.96959 0.73546,2.944585 0.17459,0.594056 0.44746,1.089827 0.89148,1.322112 0.83485,0.259766 1.70507,0.23049 2.55691,0.246367 0.76934,-0.02434 1.54387,0.08093 2.30611,-0.107503 0.50167,-0.124013 0.86978,-0.301281 1.35899,-0.506285 1.34624,-0.702292 2.66245,-1.502077 4.01229,-2.191901 0.71214,-0.277511 1.36603,-0.76544 2.07405,-1.052989 0.45876,-0.06759 0.8513,-0.386119 1.28908,-0.560583 0.29458,-0.154734 0.60197,-0.247642 0.91139,-0.325395 0,0 -2.30617,2.386441 -2.30617,2.386441 v 0 c -0.30335,0.09875 -0.60189,0.218006 -0.89551,0.362151 -0.42298,0.208402 -0.83904,0.427109 -1.28124,0.551754 -0.67267,0.32389 -1.3257,0.723596 -2.00953,1.0068 -1.34381,0.690285 -2.65116,1.503755 -4.00687,2.151582 -0.57493,0.22389 -0.82017,0.348294 -1.4038,0.467227 -0.77483,0.157898 -1.55641,0.06673 -2.33579,0.07906 -0.89254,-0.01233 -1.82369,0.059 -2.68086,-0.3312 -0.48082,-0.352939 -0.808671,-0.897258 -1.001234,-1.598515 -0.240082,-0.977307 -0.415119,-1.9851 -0.690461,-2.94635 -0.577854,-1.933649 -1.137894,-3.877699 -1.788039,-5.769297 -0.06034,-0.17929 -0.710533,-2.105004 -0.76787,-2.296271 -0.460877,-1.537486 -0.771489,-3.152958 -1.211623,-4.700876 -0.676459,-2.640029 -1.364462,-5.294289 -2.32799,-7.769508 -0.350143,-0.785519 -0.511411,-1.227143 -0.942158,-1.910437 -0.677858,-1.075294 -1.570367,-1.835762 -2.487536,-2.471301 -0.277053,-0.186135 -0.548429,-0.388893 -0.831171,-0.558409 -1.433019,-0.859171 -2.991691,-1.294646 -4.541415,-1.517123 -1.198291,-0.113004 -2.398987,-0.239737 -3.601062,-0.175234 0,0 2.348707,-2.327145 2.348707,-2.327145 z"
       inkscape:connector-curvature="0" />
    <path
       style="fill:#ffcc00;stroke-width:0.22656611"
       id="path51"
       d="m 82.38908,38.390416 c 1.387123,-0.02397 2.66344,0.75706 3.899905,1.524772 2.092882,1.377969 3.893043,3.410633 5.485577,5.697903 0.363505,0.522094 0.70713,1.069292 1.060704,1.603936 1.175404,2.015479 2.122645,4.239686 3.028443,6.490692 0.724345,1.800042 1.102172,2.740469 1.704378,4.616085 0.246317,0.767191 0.461689,1.552178 0.692528,2.328267 0.915983,3.391008 1.61417,6.876965 2.415395,10.318427 0.29891,1.285258 0.64345,2.561042 1.16676,3.712308 0.31818,0.700008 0.43632,0.849624 0.81867,1.475494 0.91506,1.463709 2.23531,2.260343 3.45564,3.154116 0.94851,0.74848 1.97793,1.118809 3.05723,1.273336 0.80864,0.07626 1.59302,-0.269025 2.31353,-0.749673 0.1962,-0.130886 0.76115,-0.584538 0.56759,-0.446542 -0.61892,0.441232 -1.22933,0.90433 -1.844,1.356495 0.54772,-0.556419 1.04993,-1.187445 1.55207,-1.81664 0,0 2.60378,-1.454084 2.60378,-1.454084 v 0 c -0.50468,0.637326 -1.00807,1.277919 -1.54703,1.862032 -1.29864,1.080066 -3.11614,2.978666 -4.80628,3.427605 -0.50342,0.133723 -0.66265,0.08822 -1.15832,0.06193 -1.11067,-0.197916 -2.11428,-0.636124 -3.08345,-1.424283 -1.25085,-0.921129 -2.58912,-1.759501 -3.51813,-3.275836 -0.978047,-1.639091 -1.611172,-3.293628 -2.005191,-5.347983 -0.702328,-3.487729 -1.354547,-6.996771 -2.242053,-10.409224 -0.226786,-0.771983 -0.438513,-1.552519 -0.680374,-2.315946 -0.575421,-1.816306 -0.979606,-2.864649 -1.680714,-4.603599 -0.89878,-2.229239 -1.857427,-4.417626 -3.061312,-6.372161 -0.353614,-0.527159 -0.697093,-1.067321 -1.060862,-1.581481 -1.596582,-2.256657 -3.402351,-4.235648 -5.518991,-5.508024 -1.267637,-0.722321 -2.565102,-1.430779 -3.967895,-1.267113 0,0 2.352402,-2.33081 2.352402,-2.330809 z"
       inkscape:connector-curvature="0" />
    <path
       style="fill:#ffcc00;stroke-width:0.22656611"
       id="path53"
       d="m 78.506672,39.111616 c 1.596022,-1.531549 3.30239,-2.864485 5.052226,-4.039622 1.331004,-0.893532 2.749049,-1.48468 4.175754,-2.013741 1.156436,-0.43293 2.343897,-0.644774 3.539063,-0.720566 0.698859,0.01498 1.40832,-0.11289 2.1056,0.0013 0.389511,0.06385 0.579388,0.161142 0.950607,0.308718 1.281167,0.713013 1.722156,2.310072 2.140876,3.976217 0.572806,2.428248 0.629105,4.980384 0.851313,7.489677 0.05136,0.579471 0.117029,1.156403 0.175543,1.734605 0.285352,2.748606 0.693592,5.466138 1.139926,8.172545 0.109861,0.666163 0.195431,1.340147 0.321711,2.000877 0.130412,0.68239 0.298544,1.350333 0.447816,2.0255 0.668843,2.33876 1.526363,4.651033 2.991713,6.256522 0.90398,0.990444 1.29079,1.105792 2.3488,1.737974 0.45612,0.179488 0.90592,0.392216 1.36838,0.538459 1.58322,0.50066 3.2203,0.688811 4.83213,0.921845 2.97311,0.42985 0.21602,0.04838 3.0588,0.435631 1.15899,0.111903 2.3176,0.316495 3.48038,0.354526 0.4922,0.01611 1.17083,0.0217 1.65,-0.223533 0.23052,-0.117975 0.42338,-0.342974 0.63506,-0.514464 -0.60805,0.437952 -1.18481,0.968619 -1.82416,1.313855 -0.19921,0.107564 0.32337,-0.383805 0.47753,-0.586711 0.61613,-0.810956 1.1633,-1.728385 1.73413,-2.597322 0.13804,-0.219136 0.27608,-0.438269 0.41412,-0.657405 0,0 2.59219,-1.4961 2.59219,-1.4961 v 0 c -0.1401,0.223203 -0.28018,0.446403 -0.42026,0.669603 -0.43464,0.663974 -0.8594,1.340376 -1.29612,2.001731 -0.13926,0.21091 -0.73461,1.10398 -0.89924,1.253167 -0.96465,0.874128 -1.97252,1.65612 -2.95879,2.484179 -0.22725,0.137451 -0.4422,0.321847 -0.68178,0.412355 -0.49554,0.187198 -1.15389,0.154276 -1.65361,0.119071 -1.14021,-0.08033 -2.27541,-0.289703 -3.41106,-0.437989 -1.55915,-0.23472 -3.12116,-0.453027 -4.67826,-0.71125 -0.91918,-0.152432 -2.32988,-0.39692 -3.24586,-0.694727 -0.47277,-0.153712 -0.93115,-0.38046 -1.39673,-0.570688 -1.10361,-0.681363 -1.47002,-0.786156 -2.40915,-1.838909 -1.488081,-1.668122 -2.337999,-4.044802 -3.019672,-6.443509 -0.156195,-0.681504 -0.334676,-1.354241 -0.468585,-2.044507 -0.127953,-0.659551 -0.208449,-1.334559 -0.316191,-2.000793 -0.438443,-2.711151 -0.844547,-5.431483 -1.191143,-8.167923 -0.06531,-0.5789 -0.140125,-1.155975 -0.19612,-1.736698 -0.237946,-2.467607 -0.275874,-4.990404 -0.8742,-7.370133 -0.417779,-1.494565 -0.867783,-3.046859 -2.068937,-3.60653 -0.991904,-0.347564 -1.976431,-0.290094 -2.992731,-0.217731 -1.170867,0.103309 -2.33523,0.311817 -3.467277,0.749316 -1.426248,0.542028 -2.838252,1.171054 -4.160509,2.093262 -1.255244,0.878012 -0.610889,0.445045 1.330045,-1.114343 0.15329,-0.123156 -0.311384,0.235032 -0.463971,0.359807 -0.268758,0.219776 -0.509887,0.446243 -0.770111,0.681603 -0.08528,0.07713 -0.170881,0.153604 -0.256315,0.230405 0,0 -2.692931,1.482333 -2.692931,1.482333 z"
       inkscape:connector-curvature="0" />
    <path
       style="fill:#008000;stroke-width:0.22656611"
       id="path47-7"
       d="m 83.661444,36.445362 c -0.630643,-0.316166 -1.210288,-0.789572 -1.844853,-1.093343 -0.292547,-0.140044 -0.898882,-0.361106 -1.194559,-0.472601 -1.320043,-0.382633 -2.668875,-0.523201 -4.014648,-0.598091 -0.786845,-0.02896 -1.653045,-0.07393 -2.363358,0.474237 -0.142592,0.110048 -0.26991,0.253404 -0.404876,0.380105 -1.057532,0.953664 -1.777935,2.217854 -2.453,3.65424 -0.780333,1.661388 -1.512468,3.371469 -2.149072,5.143733 -0.636019,1.780595 -1.184096,3.622265 -1.51923,5.551683 -0.222064,1.28519 -0.319479,2.596108 -0.446892,3.902083 -0.170648,0.97818 -0.376396,1.95403 -0.636965,2.895515 -0.200784,0.597297 -0.293264,1.236476 -0.377517,1.878449 -0.230519,1.251942 -0.385239,2.528786 -0.545511,3.800929 -0.108663,1.230152 -0.399039,2.319962 -0.814041,3.411062 -0.407963,0.815168 -0.83739,1.702808 -1.4698,2.228715 -0.127736,0.106217 -0.267247,0.183494 -0.400872,0.27524 -1.246701,0.55815 -2.575119,0.562706 -3.873553,0.610698 -1.514096,0.0026 -3.033611,0.115981 -4.538109,-0.153841 -1.043505,-0.244632 -1.996296,-0.829041 -2.930594,-1.479222 0,0 2.218609,2.418408 2.218609,2.418408 v 0 c 0.942746,0.61763 1.914991,1.143127 2.958979,1.341323 1.512975,0.204269 3.033494,0.113118 4.551829,0.101219 1.342995,-0.04451 2.721472,-0.06267 3.995899,-0.71129 0.142885,-0.108122 0.292084,-0.202006 0.428664,-0.324358 0.653411,-0.585343 1.10122,-1.515625 1.535925,-2.376685 0.437295,-1.147348 0.739293,-2.227035 0.850339,-3.524161 0.144836,-1.266952 0.294695,-2.542455 0.578009,-3.767515 0.0883,-0.617496 0.180326,-1.237231 0.353276,-1.823119 0.251534,-0.979569 0.459651,-1.985497 0.634412,-2.995192 0.118775,-1.298961 0.24308,-2.596213 0.413939,-3.884726 0.301595,-1.911501 0.803827,-3.750902 1.460949,-5.489503 0.656176,-1.742112 1.347431,-3.465002 2.136938,-5.102241 0.679882,-1.37871 1.384658,-2.590316 2.434279,-3.482642 0.126937,-0.10491 0.247295,-0.226293 0.380802,-0.314735 0.6974,-0.461991 1.519728,-0.369737 2.268846,-0.360839 1.332348,0.07994 2.672131,0.207526 3.968328,0.66412 0.448293,0.180243 0.746654,0.286354 1.181837,0.515533 0.645837,0.340114 1.253191,0.803053 1.894269,1.158687 0,0 -2.268678,-2.451875 -2.268678,-2.451875 z"
       inkscape:connector-curvature="0" />
    <path
       style="fill:#008000;stroke-width:0.22656611"
       id="path49-8"
       d="m 82.860946,36.902877 c -1.173287,0.01439 -2.342298,0.172625 -3.51117,0.29895 -1.560014,0.267099 -3.127867,0.747622 -4.567778,1.631151 -0.288623,0.177101 -0.565792,0.387056 -0.848696,0.580586 -0.939849,0.658974 -1.886584,1.419812 -2.57454,2.542738 -0.413271,0.674561 -0.619138,1.254072 -0.940413,2.022372 -0.927391,2.525392 -1.657481,5.179134 -2.344703,7.840575 -0.430643,1.549553 -0.775655,3.140998 -1.233348,4.677206 -0.188664,0.633225 -0.537598,1.665011 -0.743252,2.283079 -0.628576,1.902647 -1.226756,3.823011 -1.86196,5.721587 -0.313724,0.947137 -0.476788,1.96959 -0.735465,2.944585 -0.174592,0.594059 -0.447465,1.08983 -0.891483,1.322113 -0.834845,0.259768 -1.705069,0.230491 -2.556904,0.246366 -0.769342,-0.02434 -1.543867,0.08093 -2.30611,-0.107502 C 57.243449,68.78267 56.875339,68.605402 56.386129,68.4004 55.039893,67.698106 53.723684,66.89832 52.373842,66.208499 51.66171,65.930985 51.007815,65.443057 50.299789,65.155507 49.841032,65.087917 49.44849,64.76939 49.010705,64.594927 48.716127,64.44019 48.408747,64.347285 48.099321,64.269532 c 0,0 2.306177,2.386441 2.306177,2.386441 v 0 c 0.303347,0.09875 0.601884,0.218006 0.895508,0.362151 0.422973,0.208401 0.839031,0.427109 1.281231,0.551751 0.672674,0.323893 1.325704,0.723599 2.009532,1.006801 1.343816,0.690284 2.651159,1.503756 4.006876,2.151583 0.574922,0.223888 0.820171,0.348293 1.403797,0.467226 0.774834,0.157898 1.556406,0.06673 2.335794,0.07906 0.892531,-0.01233 1.823684,0.059 2.680857,-0.3312 0.48082,-0.352939 0.808666,-0.897258 1.001231,-1.598515 0.240088,-0.977307 0.41512,-1.9851 0.690463,-2.94635 0.577855,-1.933649 1.137891,-3.877699 1.788039,-5.769298 0.06035,-0.179289 0.710533,-2.105003 0.767868,-2.29627 0.460883,-1.537486 0.77149,-3.152958 1.211629,-4.700876 0.676458,-2.640029 1.364458,-5.294289 2.327984,-7.769508 0.350145,-0.785519 0.511413,-1.227143 0.94216,-1.910437 0.677858,-1.075294 1.570367,-1.835762 2.487536,-2.471301 0.277052,-0.186135 0.548428,-0.388893 0.831171,-0.558409 1.433018,-0.859171 2.99169,-1.294646 4.541417,-1.517123 1.198291,-0.113004 2.398986,-0.239737 3.601061,-0.175234 0,0 -2.348706,-2.327145 -2.348706,-2.327145 z"
       inkscape:connector-curvature="0" />
    <path
       style="fill:#008000;stroke-width:0.22656611"
       id="path51-1"
       d="m 83.274503,38.504662 c -1.387122,-0.02397 -2.663441,0.75706 -3.899906,1.524772 -2.092882,1.377969 -3.893043,3.410633 -5.485578,5.697903 -0.363504,0.522094 -0.70713,1.069292 -1.060699,1.603936 -1.175405,2.015479 -2.122646,4.239686 -3.028449,6.490692 -0.724341,1.800042 -1.102174,2.740469 -1.704373,4.616085 -0.246321,0.767193 -0.46169,1.55218 -0.692532,2.328269 -0.915981,3.391005 -1.614166,6.876962 -2.415397,10.318427 -0.298904,1.285256 -0.643454,2.561039 -1.166753,3.712308 -0.318182,0.700008 -0.436318,0.849622 -0.818668,1.475494 -0.915065,1.463706 -2.235313,2.26034 -3.455639,3.154113 -0.948517,0.748483 -1.977935,1.11881 -3.057238,1.273337 -0.808638,0.07626 -1.593019,-0.269023 -2.313524,-0.749673 -0.196209,-0.130884 -0.761159,-0.584536 -0.567589,-0.44654 0.618918,0.44123 1.22933,0.90433 1.843996,1.356495 -0.547718,-0.556422 -1.049937,-1.187448 -1.552073,-1.816643 0,0 -2.603775,-1.454083 -2.603775,-1.454083 v 0 c 0.504681,0.637328 1.008065,1.277918 1.54702,1.862034 1.298654,1.080063 3.116141,2.978666 4.806282,3.427603 0.503428,0.133723 0.662657,0.08822 1.158327,0.06193 1.110665,-0.197916 2.114279,-0.636125 3.083445,-1.424284 1.250859,-0.921128 2.589124,-1.7595 3.518136,-3.275835 0.978045,-1.639091 1.611166,-3.293629 2.005183,-5.347984 0.702335,-3.487729 1.354551,-6.996771 2.242059,-10.409224 0.226786,-0.771983 0.438511,-1.552519 0.680373,-2.315945 0.575421,-1.816306 0.979608,-2.86465 1.680711,-4.6036 0.898786,-2.229239 1.857429,-4.417626 3.061315,-6.372161 0.353613,-0.527159 0.697092,-1.067321 1.06086,-1.581481 1.596583,-2.256656 3.402353,-4.235647 5.518993,-5.508023 1.267636,-0.722321 2.565102,-1.430779 3.967896,-1.267113 0,0 -2.352403,-2.33081 -2.352403,-2.330809 z"
       inkscape:connector-curvature="0" />
    <path
       style="fill:#008000;stroke-width:0.22656611"
       id="path53-9"
       d="M 87.156908,39.225862 C 85.56089,37.694313 83.854522,36.361377 82.104686,35.18624 80.77368,34.292708 79.355634,33.70156 77.928929,33.172499 c -1.156435,-0.43293 -2.343896,-0.644774 -3.539063,-0.720566 -0.698859,0.01498 -1.408321,-0.11289 -2.105597,0.0013 -0.389514,0.06385 -0.579387,0.161142 -0.950606,0.308718 -1.281173,0.713013 -1.722155,2.310072 -2.140875,3.976217 -0.57281,2.428248 -0.629111,4.980384 -0.851314,7.489677 -0.05133,0.579471 -0.11703,1.156403 -0.175545,1.734605 -0.285353,2.748606 -0.693595,5.466138 -1.13993,8.172545 -0.109859,0.666163 -0.195425,1.340147 -0.321709,2.000877 -0.130412,0.68239 -0.298544,1.350333 -0.447816,2.0255 -0.668847,2.33876 -1.526357,4.651033 -2.991705,6.256522 -0.903992,0.990444 -1.290794,1.105792 -2.348802,1.737974 -0.456132,0.179488 -0.905921,0.392216 -1.368381,0.538459 -1.583229,0.50066 -3.220309,0.688811 -4.832136,0.921845 -2.973109,0.42985 -0.216023,0.04838 -3.0588,0.435631 -1.158987,0.111903 -2.317601,0.316495 -3.480379,0.354526 -0.492202,0.01611 -1.17083,0.0217 -1.650001,-0.223533 -0.230519,-0.117975 -0.423376,-0.342974 -0.635065,-0.514464 0.608058,0.437952 1.184813,0.968618 1.824167,1.313855 0.199209,0.107563 -0.323372,-0.383805 -0.477528,-0.586711 -0.616139,-0.810956 -1.163299,-1.728386 -1.734129,-2.597322 -0.138046,-0.219136 -0.276084,-0.438269 -0.414123,-0.657405 0,0 -2.592181,-1.4961 -2.592181,-1.4961 v 0 c 0.140083,0.223203 0.280168,0.446403 0.420252,0.669602 0.434639,0.663975 0.859402,1.340377 1.296116,2.001732 0.139263,0.21091 0.734607,1.103979 0.899241,1.253167 0.964649,0.874128 1.972524,1.65612 2.958789,2.484179 0.227255,0.137451 0.442199,0.321847 0.681781,0.412355 0.495538,0.187198 1.153891,0.154276 1.653616,0.119071 1.140201,-0.08033 2.275401,-0.289703 3.411056,-0.437989 1.559149,-0.23472 3.121164,-0.453027 4.67826,-0.71125 0.919178,-0.152432 2.329876,-0.39692 3.245857,-0.694727 0.472777,-0.153713 0.93116,-0.38046 1.396736,-0.570688 1.103611,-0.681363 1.470012,-0.786156 2.409143,-1.83891 1.488087,-1.668121 2.338001,-4.044801 3.01968,-6.443509 0.156194,-0.681503 0.334672,-1.35424 0.468582,-2.044506 0.127949,-0.659551 0.208448,-1.334559 0.316195,-2.000793 0.438437,-2.711151 0.844537,-5.431483 1.191141,-8.167923 0.06533,-0.5789 0.14012,-1.155975 0.196113,-1.736698 0.237947,-2.467607 0.275879,-4.990404 0.874206,-7.370133 0.417776,-1.494565 0.867784,-3.046859 2.068934,-3.60653 0.991905,-0.347564 1.976432,-0.290094 2.992732,-0.217731 1.170867,0.103309 2.33523,0.311817 3.467277,0.749316 1.42625,0.542028 2.838252,1.171054 4.16051,2.093262 1.255245,0.878012 0.61089,0.445045 -1.330045,-1.114343 -0.153291,-0.123156 0.311384,0.235032 0.463971,0.359807 0.268759,0.219776 0.509888,0.446243 0.770111,0.681603 0.08528,0.07713 0.170882,0.153604 0.256316,0.230405 0,0 2.692927,1.482333 2.692927,1.482333 z"
       inkscape:connector-curvature="0" />
  </g>
  <g
     inkscape:groupmode="layer"
     id="layer4"
     inkscape:label="eyes">
    <path
       style="fill:#008000;stroke-width:0.31127104"
       id="path80"
       sodipodi:type="arc"
       sodipodi:cx="79.732018"
       sodipodi:cy="53.74575"
       sodipodi:rx="3.0995848"
       sodipodi:ry="3.4448602"
       sodipodi:start="0.95797617"
       sodipodi:end="3.1374388"
       d="m 81.514827,56.563747 a 3.0995848,3.4448602 0 0 1 -3.205634,0.242476 3.0995848,3.4448602 0 0 1 -1.676734,-3.046163 l 3.099559,-0.01431 z" />
    <path
       style="fill:#ffcc00;stroke-width:0.31127104"
       id="path80-5"
       sodipodi:type="arc"
       sodipodi:cx="-86.071854"
       sodipodi:cy="53.703465"
       sodipodi:rx="3.0995848"
       sodipodi:ry="3.4448602"
       sodipodi:start="0.95797617"
       sodipodi:end="3.1374388"
       d="m -84.289045,56.521461 a 3.0995848,3.4448602 0 0 1 -3.205633,0.242476 3.0995848,3.4448602 0 0 1 -1.676734,-3.046163 l 3.099558,-0.01431 z"
       transform="scale(-1,1)" />
  </g>
</svg>
