<?xml version="1.0" encoding="UTF-8" standalone="no"?>
<!-- Created with Inkscape (http://www.inkscape.org/) -->

<svg
   xmlns:dc="http://purl.org/dc/elements/1.1/"
   xmlns:cc="http://creativecommons.org/ns#"
   xmlns:rdf="http://www.w3.org/1999/02/22-rdf-syntax-ns#"
   xmlns:svg="http://www.w3.org/2000/svg"
   xmlns="http://www.w3.org/2000/svg"
   xmlns:sodipodi="http://sodipodi.sourceforge.net/DTD/sodipodi-0.dtd"
   xmlns:inkscape="http://www.inkscape.org/namespaces/inkscape"
   width="210mm"
   height="297mm"
   viewBox="0 0 210 297"
   version="1.1"
   id="svg3723"
   inkscape:version="0.92.2 (5c3e80d, 2017-08-06)"
   sodipodi:docname="Knight.svg">
  <defs
     id="defs3717" />
  <sodipodi:namedview
     id="base"
     pagecolor="#ffffff"
     bordercolor="#666666"
     borderopacity="1.0"
     inkscape:pageopacity="0.0"
     inkscape:pageshadow="2"
     inkscape:zoom="0.98994949"
     inkscape:cx="466.00968"
     inkscape:cy="738.03919"
     inkscape:document-units="mm"
     inkscape:current-layer="layer1"
     showgrid="false"
     inkscape:window-width="1920"
     inkscape:window-height="1017"
     inkscape:window-x="-8"
     inkscape:window-y="-8"
     inkscape:window-maximized="1" />
  <metadata
     id="metadata3720">
    <rdf:RDF>
      <cc:Work
         rdf:about="">
        <dc:format>image/svg+xml</dc:format>
        <dc:type
           rdf:resource="http://purl.org/dc/dcmitype/StillImage" />
        <dc:title></dc:title>
      </cc:Work>
    </rdf:RDF>
  </metadata>
  <g
     inkscape:groupmode="layer"
     id="layer8"
     inkscape:label="head1"
     style="display:inline">
    <path
       style="fill:#aa0000;stroke-width:0.26458332"
       id="path3881"
       sodipodi:type="arc"
       sodipodi:cx="87.129868"
       sodipodi:cy="82.649834"
       sodipodi:rx="11.759859"
       sodipodi:ry="11.22532"
       sodipodi:start="4.6918465"
       sodipodi:end="4.6880416"
       d="M 86.888308,71.426882 A 11.759859,11.22532 0 0 1 98.88701,82.408579 11.759859,11.22532 0 0 1 87.393795,93.872326 11.759859,11.22532 0 0 1 75.373227,82.912439 11.759859,11.22532 0 0 1 86.843574,71.427841 l 0.286294,11.221993 z" />
    <path
       style="fill:#aa0000;stroke-width:0.26458332"
       id="path3881-1"
       sodipodi:type="arc"
       sodipodi:cx="103.70058"
       sodipodi:cy="71.959053"
       sodipodi:rx="11.759859"
       sodipodi:ry="11.22532"
       sodipodi:start="4.6918465"
       sodipodi:end="4.6880416"
       d="M 103.45902,60.736102 A 11.759859,11.22532 0 0 1 115.45772,71.717798 11.759859,11.22532 0 0 1 103.9645,83.181546 11.759859,11.22532 0 0 1 91.943936,72.221658 11.759859,11.22532 0 0 1 103.41428,60.73706 l 0.2863,11.221993 z" />
    <path
       style="fill:#aa0000;stroke-width:0.26458332"
       id="path3881-6"
       sodipodi:type="arc"
       sodipodi:cx="109.58051"
       sodipodi:cy="96.815125"
       sodipodi:rx="11.759859"
       sodipodi:ry="11.22532"
       sodipodi:start="4.6918465"
       sodipodi:end="4.6880416"
       d="M 109.33895,85.592173 A 11.759859,11.22532 0 0 1 121.33766,96.573869 11.759859,11.22532 0 0 1 109.84444,108.03762 11.759859,11.22532 0 0 1 97.823872,97.07773 11.759859,11.22532 0 0 1 109.29422,85.593132 l 0.28629,11.221993 z" />
    <path
       style="display:inline;fill:#b3b3b3;stroke-width:0.26458332"
       id="path3881-1-8"
       sodipodi:type="arc"
       sodipodi:cx="233.59357"
       sodipodi:cy="200.78297"
       sodipodi:rx="11.759859"
       sodipodi:ry="11.22532"
       sodipodi:start="4.6918465"
       sodipodi:end="4.6880416"
       d="m 233.35201,189.56002 a 11.759859,11.22532 0 0 1 11.9987,10.9817 11.759859,11.22532 0 0 1 -11.49322,11.46375 11.759859,11.22532 0 0 1 -12.02056,-10.95989 11.759859,11.22532 0 0 1 11.47034,-11.4846 l 0.2863,11.22199 z" />
    <path
       style="display:inline;fill:#b3b3b3;stroke-width:0.26458332"
       id="path3881-1-8-4"
       sodipodi:type="arc"
       sodipodi:cx="109.29422"
       sodipodi:cy="85.593132"
       sodipodi:rx="11.759859"
       sodipodi:ry="11.22532"
       sodipodi:start="4.6918465"
       sodipodi:end="4.6880416"
       d="M 109.05266,74.370181 A 11.759859,11.22532 0 0 1 121.05136,85.351877 11.759859,11.22532 0 0 1 109.55815,96.815624 11.759859,11.22532 0 0 1 97.537579,85.855737 11.759859,11.22532 0 0 1 109.00793,74.371139 l 0.28629,11.221993 z" />
  </g>
  <g
     inkscape:groupmode="layer"
     id="layer5"
     inkscape:label="Layer 3"
     style="display:inline">
    <path
       style="display:inline;fill:#ffffff;stroke-width:0.26458332"
       id="path3733-6"
       sodipodi:type="arc"
       sodipodi:cx="97.895828"
       sodipodi:cy="166.59821"
       sodipodi:rx="42.333332"
       sodipodi:ry="40.443455"
       sodipodi:start="0"
       sodipodi:end="6.2215403"
       sodipodi:open="true"
       d="M 140.22916,166.59821 A 42.333332,40.443455 0 0 1 98.548212,207.03686 42.333332,40.443455 0 0 1 55.582603,167.84458 42.333332,40.443455 0 0 1 95.939297,126.19797 42.333332,40.443455 0 0 1 140.14875,164.10665" />
  </g>
  <g
     inkscape:label="back shape"
     inkscape:groupmode="layer"
     id="layer1"
     style="display:inline">
    <path
       style="fill:#666666;stroke-width:0.26458332"
       id="path3733"
       sodipodi:type="arc"
       sodipodi:cx="108.47918"
       sodipodi:cy="123.50893"
       sodipodi:rx="42.333332"
       sodipodi:ry="40.443455"
       sodipodi:start="0"
       sodipodi:end="6.2215403"
       sodipodi:open="true"
       d="M 150.81251,123.50893 A 42.333332,40.443455 0 0 1 109.13156,163.94758 42.333332,40.443455 0 0 1 66.165955,124.7553 42.333332,40.443455 0 0 1 106.52265,83.108689 42.333332,40.443455 0 0 1 150.7321,121.01737" />
    <path
       style="fill:#ffffff;stroke-width:0.26458332"
       id="path3733-1"
       sodipodi:type="arc"
       sodipodi:cx="88.446449"
       sodipodi:cy="205.90771"
       sodipodi:rx="42.333332"
       sodipodi:ry="40.443455"
       sodipodi:start="0"
       sodipodi:end="3.1491008"
       d="M 130.77978,205.90771 A 42.333332,40.443455 0 0 1 109.5213,240.98327 42.333332,40.443455 0 0 1 67.096541,240.83112 42.333332,40.443455 0 0 1 46.11431,205.60406 l 42.332139,0.30365 z" />
  </g>
  <g
     inkscape:groupmode="layer"
     id="layer4"
     inkscape:label="light half face"
     style="display:inline">
    <path
       style="display:inline;fill:#cccccc;stroke-width:0.26458332"
       id="path3733-0"
       sodipodi:type="arc"
       sodipodi:cx="125.4576"
       sodipodi:cy="-111.14269"
       sodipodi:rx="42.333332"
       sodipodi:ry="40.443455"
       sodipodi:start="0"
       sodipodi:end="3.1459487"
       d="m 167.79094,-111.14269 a 42.333332,40.443455 0 0 1 -21.21993,35.054382 42.333332,40.443455 0 0 1 -42.38645,-0.0882 42.333332,40.443455 0 0 1 -21.059887,-35.142365 l 42.332927,0.17618 z"
       transform="rotate(89.78909)" />
  </g>
  <g
     inkscape:groupmode="layer"
     id="layer6"
     inkscape:label="White Beard">
    <path
       style="display:inline;fill:#ffffff;stroke-width:0.26458332"
       id="path3733-1-7"
       sodipodi:type="arc"
       sodipodi:cx="111.50298"
       sodipodi:cy="154.08783"
       sodipodi:rx="42.333332"
       sodipodi:ry="40.443455"
       sodipodi:start="0"
       sodipodi:end="3.1491008"
       d="m 153.83632,154.08783 a 42.333332,40.443455 0 0 1 -21.25849,35.07556 42.333332,40.443455 0 0 1 -42.424755,-0.15216 42.333332,40.443455 0 0 1 -20.982231,-35.22705 l 42.332136,0.30365 z" />
  </g>
  <g
     inkscape:groupmode="layer"
     id="layer7"
     inkscape:label="Eyes"
     style="display:inline">
    <path
       style="fill:#f9f9f9;stroke-width:0.10360669"
       id="path3859"
       sodipodi:type="arc"
       sodipodi:cx="126.15121"
       sodipodi:cy="114.25446"
       sodipodi:rx="5.6126595"
       sodipodi:ry="4.8776693"
       sodipodi:start="4.6918519"
       sodipodi:end="4.6880455"
       d="m 126.03595,109.37782 a 5.6126595,4.8776693 0 0 1 5.72662,4.77184 5.6126595,4.8776693 0 0 1 -5.48542,4.98124 5.6126595,4.8776693 0 0 1 -5.73707,-4.76235 5.6126595,4.8776693 0 0 1 5.47451,-4.99031 l 0.13662,4.87622 z" />
    <path
       style="display:inline;fill:#333333;stroke-width:0.10360669"
       id="path3859-9"
       sodipodi:type="arc"
       sodipodi:cx="93.8116"
       sodipodi:cy="113.92038"
       sodipodi:rx="5.6126595"
       sodipodi:ry="4.8776693"
       sodipodi:start="4.6918519"
       sodipodi:end="4.6880455"
       d="m 93.69634,109.04374 a 5.6126595,4.8776693 0 0 1 5.726623,4.77183 5.6126595,4.8776693 0 0 1 -5.485424,4.98125 5.6126595,4.8776693 0 0 1 -5.737063,-4.76235 5.6126595,4.8776693 0 0 1 5.474506,-4.99031 l 0.136618,4.87622 z" />
  </g>
</svg>
