<?xml version="1.0" encoding="UTF-8" standalone="no"?>
<!-- Created with Inkscape (http://www.inkscape.org/) -->

<svg
   xmlns:dc="http://purl.org/dc/elements/1.1/"
   xmlns:cc="http://creativecommons.org/ns#"
   xmlns:rdf="http://www.w3.org/1999/02/22-rdf-syntax-ns#"
   xmlns:svg="http://www.w3.org/2000/svg"
   xmlns="http://www.w3.org/2000/svg"
   xmlns:sodipodi="http://sodipodi.sourceforge.net/DTD/sodipodi-0.dtd"
   xmlns:inkscape="http://www.inkscape.org/namespaces/inkscape"
   width="210mm"
   height="297mm"
   viewBox="0 0 210 297"
   version="1.1"
   id="svg8"
   inkscape:version="0.92.2 (5c3e80d, 2017-08-06)"
   sodipodi:docname="elf.svg">
  <defs
     id="defs2" />
  <sodipodi:namedview
     id="base"
     pagecolor="#ffffff"
     bordercolor="#666666"
     borderopacity="1.0"
     inkscape:pageopacity="0.0"
     inkscape:pageshadow="2"
     inkscape:zoom="1.4"
     inkscape:cx="400"
     inkscape:cy="1071.3292"
     inkscape:document-units="mm"
     inkscape:current-layer="layer1"
     showgrid="false"
     inkscape:measure-start="457.262,902.066"
     inkscape:measure-end="718.218,903.076"
     inkscape:window-width="1366"
     inkscape:window-height="705"
     inkscape:window-x="-8"
     inkscape:window-y="-8"
     inkscape:window-maximized="1" />
  <metadata
     id="metadata5">
    <rdf:RDF>
      <cc:Work
         rdf:about="">
        <dc:format>image/svg+xml</dc:format>
        <dc:type
           rdf:resource="http://purl.org/dc/dcmitype/StillImage" />
        <dc:title />
      </cc:Work>
    </rdf:RDF>
  </metadata>
  <g
     inkscape:label="Layer 1"
     inkscape:groupmode="layer"
     id="layer1">
    <path
       style="fill:#ffcc00;stroke-width:0.26458332"
       id="path64-2"
       sodipodi:type="arc"
       sodipodi:cx="55.096436"
       sodipodi:cy="-97.59362"
       sodipodi:rx="18.307962"
       sodipodi:ry="19.109772"
       sodipodi:start="0"
       sodipodi:end="3.1374316"
       d="M 73.404398,-97.59362 A 18.307962,19.109772 0 0 1 55.134526,-78.48389 18.307962,19.109772 0 0 1 36.788632,-97.514104 l 18.307804,-0.07952 z"
       transform="rotate(90)" />
  </g>
  <g
     inkscape:groupmode="layer"
     id="layer2"
     inkscape:label="ears">
    <path
       sodipodi:type="star"
       style="fill:#ffcc00;stroke-width:0.26458332"
       id="path112-4-0"
       sodipodi:sides="3"
       sodipodi:cx="-157.2213"
       sodipodi:cy="-19.574232"
       sodipodi:r1="5.3453903"
       sodipodi:r2="2.6726952"
       sodipodi:arg1="0"
       sodipodi:arg2="1.0471976"
       inkscape:flatsided="true"
       inkscape:rounded="1"
       inkscape:randomized="0"
       d="m -151.87591,-19.574232 c 0,9.258488 0,9.258488 -8.01808,4.629244 -8.01809,-4.629244 -8.01809,-4.629244 0,-9.258488 8.01808,-4.629244 8.01808,-4.629244 8.01808,4.629244 z"
       inkscape:transform-center-x="3.2118756"
       transform="matrix(2.1543443,-0.44587102,-0.19913752,-0.96218587,409.74871,-32.791056)"
       inkscape:transform-center-y="-1.5814223" />
    <path
       style="fill:#008000;stroke-width:0.26726952"
       d="m 97.593619,55.096437 v -18.19356 h 1.2936 c 0.71147,0 2.220391,0.237035 3.353141,0.526743 8.4237,2.15442 14.13184,9.220237 14.14869,17.513948 0.006,3.092987 -0.39147,4.75792 -1.87928,7.866415 -2.72116,5.685369 -8.44733,9.522687 -15.379351,10.306297 l -1.5368,0.17371 z"
       id="path42"
       inkscape:connector-curvature="0" />
    <path
       style="fill:#008000;stroke-width:0.26726952"
       d="m 111.65585,61.663303 c -1.10724,-0.262069 -2.09198,-1.165383 -2.26667,-2.079257 -0.26664,-1.39483 1.20595,-8.998715 2.11283,-10.909812 0.93016,-1.960176 2.82098,-1.9865 7.24863,-0.100916 5.61019,2.389189 19.19546,9.299755 20.39604,10.37508 l 1.19129,1.066993 -0.98546,0.418206 c -2.30598,0.978604 -24.57941,1.967523 -27.69666,1.229706 z"
       id="path44"
       inkscape:connector-curvature="0" />
  </g>
  <g
     inkscape:groupmode="layer"
     id="layer3"
     inkscape:label="hair">
    <path
       style="fill:#ffcc00;stroke-width:0.26458332"
       id="path47"
       d="m 96.422422,36.331116 c 0.86004,-0.316166 1.65053,-0.789572 2.51592,-1.093343 0.39896,-0.140044 1.225848,-0.361106 1.629078,-0.472601 1.80021,-0.382633 3.63968,-0.523201 5.47498,-0.598091 1.07306,-0.02896 2.25434,-0.07393 3.22303,0.474237 0.19446,0.110048 0.36809,0.253404 0.55215,0.380105 1.44221,0.953664 2.42466,2.217854 3.34528,3.65424 1.06418,1.661388 2.06263,3.371469 2.9308,5.143733 0.86737,1.780595 1.61481,3.622265 2.07185,5.551683 0.30284,1.28519 0.43569,2.596108 0.60945,3.902083 0.23272,0.97818 0.51331,1.95403 0.86866,2.895515 0.27382,0.597297 0.39994,1.236475 0.51484,1.878449 0.31437,1.25194 0.52537,2.528785 0.74394,3.80093 0.14819,1.230149 0.54419,2.31996 1.11015,3.411061 0.55636,0.815166 1.14199,1.702806 2.00444,2.228713 0.1742,0.106217 0.36446,0.183496 0.54669,0.275243 1.70019,0.558149 3.51182,0.562703 5.28256,0.610696 2.06485,0.0026 4.13709,0.11598 6.18885,-0.15384 1.42308,-0.244631 2.72245,-0.829042 3.9966,-1.479224 0,0 -3.02563,2.418408 -3.02563,2.418408 v 0 c -1.28567,0.61763 -2.61157,1.143127 -4.03531,1.341326 -2.06332,0.204269 -4.13693,0.113115 -6.20756,0.101217 -1.83151,-0.04451 -3.71141,-0.06267 -5.44941,-0.71129 -0.19486,-0.10812 -0.39833,-0.202007 -0.58459,-0.324356 -0.89109,-0.585345 -1.50179,-1.515628 -2.09462,-2.376686 -0.59636,-1.147347 -1.00821,-2.227037 -1.15965,-3.52416 -0.19752,-1.266954 -0.40189,-2.542455 -0.78826,-3.767518 -0.12042,-0.617493 -0.24592,-1.237229 -0.48178,-1.823117 -0.34303,-0.979569 -0.62685,-1.985497 -0.86518,-2.995192 -0.16198,-1.298961 -0.3315,-2.596213 -0.56451,-3.884726 -0.4113,-1.911501 -1.09622,-3.750902 -1.99237,-5.489503 -0.89486,-1.742112 -1.83756,-3.465002 -2.91425,-5.102241 -0.92719,-1.37871 -1.88833,-2.590316 -3.31975,-3.482642 -0.17311,-0.10491 -0.33725,-0.226293 -0.51932,-0.314735 -0.95108,-0.461991 -2.07253,-0.369737 -3.09414,-0.360839 -1.81699,0.07994 -3.644118,0.207526 -5.411808,0.66412 -0.61136,0.180243 -1.01825,0.286354 -1.61173,0.515533 -0.88076,0.340114 -1.70904,0.803053 -2.58331,1.158687 0,0 3.09391,-2.451875 3.09391,-2.451875 z"
       inkscape:connector-curvature="0" />
    <path
       style="fill:#ffcc00;stroke-width:0.26458332"
       id="path49"
       d="m 97.514102,36.788631 c 1.60007,0.01439 3.194308,0.172625 4.788358,0.29895 2.12747,0.267099 4.26563,0.747622 6.22931,1.631151 0.39361,0.177101 0.7716,0.387056 1.15741,0.580586 1.28172,0.658974 2.57283,1.419812 3.51103,2.542738 0.5636,0.674561 0.84435,1.254072 1.28249,2.022372 1.26473,2.525392 2.26039,5.179134 3.19759,7.840575 0.58729,1.549553 1.0578,3.140998 1.68198,4.677206 0.25729,0.633225 0.73315,1.66501 1.01361,2.283079 0.85722,1.902648 1.67299,3.82301 2.53925,5.721588 0.42784,0.947137 0.65022,1.96959 1.00299,2.944585 0.2381,0.594056 0.61023,1.089827 1.21576,1.322112 1.13852,0.259766 2.32529,0.23049 3.48698,0.246367 1.04919,-0.02434 2.10545,0.08093 3.14496,-0.107503 0.68416,-0.124013 1.18617,-0.301281 1.85333,-0.506285 1.83593,-0.702292 3.63091,-1.502077 5.47176,-2.191901 0.97117,-0.277511 1.86292,-0.76544 2.82849,-1.052989 0.62563,-0.06759 1.16096,-0.386119 1.75799,-0.560583 0.40173,-0.154734 0.82092,-0.247642 1.2429,-0.325395 0,0 -3.14505,2.386441 -3.14505,2.386441 v 0 c -0.41369,0.09875 -0.82082,0.218006 -1.22125,0.362151 -0.57683,0.208402 -1.14423,0.427109 -1.74728,0.551754 -0.91736,0.32389 -1.80793,0.723596 -2.7405,1.0068 -1.83263,0.690285 -3.61552,1.503755 -5.46438,2.151582 -0.78405,0.22389 -1.11851,0.348294 -1.91443,0.467227 -1.05668,0.157898 -2.12255,0.06673 -3.18544,0.07906 -1.21719,-0.01233 -2.48705,0.059 -3.65602,-0.3312 -0.65572,-0.352939 -1.10282,-0.897258 -1.36543,-1.598515 -0.32742,-0.977307 -0.56612,-1.9851 -0.94162,-2.94635 -0.78805,-1.933649 -1.5518,-3.877699 -2.43844,-5.769297 -0.0823,-0.17929 -0.96899,-2.105004 -1.04718,-2.296271 -0.62853,-1.537486 -1.05212,-3.152958 -1.65236,-4.700876 -0.92252,-2.640029 -1.86078,-5.294289 -3.17479,-7.769508 -0.47751,-0.785519 -0.69744,-1.227143 -1.28487,-1.910437 -0.92443,-1.075294 -2.14159,-1.835762 -3.39238,-2.471301 -0.37783,-0.186135 -0.74792,-0.388893 -1.13351,-0.558409 -1.95428,-0.859171 -4.07992,-1.294646 -6.193358,-1.517123 -1.63417,-0.113004 -3.27162,-0.239737 -4.91095,-0.175234 0,0 3.20305,-2.327145 3.20305,-2.327145 z"
       inkscape:connector-curvature="0" />
    <path
       style="fill:#ffcc00;stroke-width:0.26458332"
       id="path51"
       d="m 96.950112,38.390416 c 1.89169,-0.02397 3.632268,0.75706 5.318498,1.524772 2.85417,1.377969 5.30914,3.410633 7.48096,5.697903 0.49573,0.522094 0.96435,1.069292 1.44653,1.603936 1.60296,2.015479 2.89476,4.239686 4.13005,6.490692 0.98782,1.800042 1.50309,2.740469 2.32434,4.616085 0.33592,0.767191 0.62963,1.552178 0.94444,2.328267 1.24917,3.391008 2.20132,6.876965 3.294,10.318427 0.40763,1.285258 0.87751,2.561042 1.59116,3.712308 0.43392,0.700008 0.59503,0.849624 1.11646,1.475494 1.24792,1.463709 3.04841,2.260343 4.71263,3.154116 1.29354,0.74848 2.69741,1.118809 4.16931,1.273336 1.10278,0.07626 2.17248,-0.269025 3.15507,-0.749673 0.26758,-0.130886 1.03803,-0.584538 0.77405,-0.446542 -0.84405,0.441232 -1.6765,0.90433 -2.51475,1.356495 0.74695,-0.556419 1.43185,-1.187445 2.11664,-1.81664 0,0 3.5509,-1.454084 3.5509,-1.454084 v 0 c -0.68826,0.637326 -1.37475,1.277919 -2.10975,1.862032 -1.77104,1.080066 -4.24964,2.978666 -6.55457,3.427605 -0.68655,0.133723 -0.9037,0.08822 -1.57967,0.06193 -1.51467,-0.197916 -2.88335,-0.636124 -4.20505,-1.424283 -1.70586,-0.921129 -3.53092,-1.759501 -4.79786,-3.275836 -1.33381,-1.639091 -2.19723,-3.293628 -2.73457,-5.347983 -0.95781,-3.487729 -1.84727,-6.996771 -3.05761,-10.409224 -0.30928,-0.771983 -0.59802,-1.552519 -0.92786,-2.315946 -0.78473,-1.816306 -1.33594,-2.864649 -2.29207,-4.603599 -1.22572,-2.229239 -2.53307,-4.417626 -4.17487,-6.372161 -0.48224,-0.527159 -0.95066,-1.067321 -1.44675,-1.581481 -2.17734,-2.256657 -4.63996,-4.235648 -7.526528,-5.508024 -1.72874,-0.722321 -3.49816,-1.430779 -5.41122,-1.267113 0,0 3.20809,-2.33081 3.20809,-2.330809 z"
       inkscape:connector-curvature="0" />
    <path
       style="fill:#ffcc00;stroke-width:0.26458332"
       id="path53"
       d="m 91.655476,39.111616 c 2.176576,-1.531549 4.503636,-2.864485 6.889976,-4.039622 1.815158,-0.893532 3.749018,-1.48468 5.694688,-2.013741 1.57709,-0.43293 3.19649,-0.644774 4.8264,-0.720566 0.95307,0.01498 1.9206,-0.11289 2.87151,0.0013 0.5312,0.06385 0.79014,0.161142 1.29639,0.308718 1.7472,0.713013 2.34859,2.310072 2.91962,3.976217 0.78117,2.428248 0.85795,4.980384 1.16098,7.489677 0.07,0.579471 0.1596,1.156403 0.2394,1.734605 0.38915,2.748606 0.94589,5.466138 1.55458,8.172545 0.14982,0.666163 0.26651,1.340147 0.43873,2.000877 0.17785,0.68239 0.40714,1.350333 0.61071,2.0255 0.91214,2.33876 2.08157,4.651033 4.07994,6.256522 1.23282,0.990444 1.76032,1.105792 3.20318,1.737974 0.62205,0.179488 1.23545,0.392216 1.86613,0.538459 2.15913,0.50066 4.3917,0.688811 6.58983,0.921845 4.05458,0.42985 0.2946,0.04838 4.17144,0.435631 1.58057,0.111903 3.16063,0.316495 4.74637,0.354526 0.67124,0.01611 1.59672,0.0217 2.25019,-0.223533 0.31437,-0.117975 0.57738,-0.342974 0.86607,-0.514464 -0.82924,0.437952 -1.61579,0.968619 -2.48771,1.313855 -0.27167,0.107564 0.441,-0.383805 0.65123,-0.586711 0.84026,-0.810956 1.58645,-1.728385 2.36492,-2.597322 0.18826,-0.219136 0.37651,-0.438269 0.56476,-0.657405 0,0 3.53509,-1.4961 3.53509,-1.4961 v 0 c -0.19104,0.223203 -0.38208,0.446403 -0.57312,0.669603 -0.59274,0.663974 -1.17201,1.340376 -1.76758,2.001731 -0.18992,0.21091 -1.00182,1.10398 -1.22634,1.253167 -1.31554,0.874128 -2.69003,1.65612 -4.03505,2.484179 -0.30992,0.137451 -0.60305,0.321847 -0.92978,0.412355 -0.67579,0.187198 -1.57362,0.154276 -2.25512,0.119071 -1.55495,-0.08033 -3.10308,-0.289703 -4.65183,-0.437989 -2.12629,-0.23472 -4.25649,-0.453027 -6.37998,-0.71125 -1.25353,-0.152432 -3.17737,-0.39692 -4.42654,-0.694727 -0.64475,-0.153712 -1.26987,-0.38046 -1.9048,-0.570688 -1.50505,-0.681363 -2.00473,-0.786156 -3.28547,-1.838909 -2.02938,-1.668122 -3.18845,-4.044802 -4.11809,-6.443509 -0.21301,-0.681504 -0.45641,-1.354241 -0.63903,-2.044507 -0.17449,-0.659551 -0.28427,-1.334559 -0.43121,-2.000793 -0.59792,-2.711151 -1.15174,-5.431483 -1.62442,-8.167923 -0.0891,-0.5789 -0.19109,-1.155975 -0.26745,-1.736698 -0.3245,-2.467607 -0.37623,-4.990404 -1.1922,-7.370133 -0.56974,-1.494565 -1.18344,-3.046859 -2.82151,-3.60653 -1.35271,-0.347564 -2.69536,-0.290094 -4.08134,-0.217731 -1.59677,0.103309 -3.18467,0.311817 -4.7285,0.749316 -1.945048,0.542028 -3.870668,1.171054 -5.673898,2.093262 -1.71184,0.878012 -0.8331,0.445045 1.81385,-1.114343 0.20905,-0.123156 -0.42465,0.235032 -0.63274,0.359807 -0.36652,0.219776 -0.69536,0.446243 -1.05024,0.681603 -0.11631,0.07713 -0.23304,0.153604 -0.34955,0.230405 0,0 -3.672486,1.482333 -3.672486,1.482333 z"
       inkscape:connector-curvature="0" />
    <path
       style="fill:#008000;stroke-width:0.26458332"
       id="path47-7"
       d="m 98.685299,36.445362 c -0.86004,-0.316166 -1.65053,-0.789572 -2.51592,-1.093343 -0.39896,-0.140044 -1.22585,-0.361106 -1.62908,-0.472601 -1.80021,-0.382633 -3.63968,-0.523201 -5.47498,-0.598091 -1.07306,-0.02896 -2.25434,-0.07393 -3.22303,0.474237 -0.19446,0.110048 -0.36809,0.253404 -0.55215,0.380105 -1.44221,0.953664 -2.42466,2.217854 -3.34528,3.65424 -1.06418,1.661388 -2.06263,3.371469 -2.9308,5.143733 -0.86737,1.780595 -1.61481,3.622265 -2.07185,5.551683 -0.30284,1.28519 -0.43569,2.596108 -0.60945,3.902083 -0.23272,0.97818 -0.51331,1.95403 -0.86866,2.895515 -0.27382,0.597297 -0.39994,1.236476 -0.51484,1.878449 -0.31437,1.251942 -0.52537,2.528786 -0.74394,3.800929 -0.14819,1.230152 -0.54419,2.319962 -1.11015,3.411062 -0.55636,0.815168 -1.14199,1.702808 -2.00444,2.228715 -0.1742,0.106217 -0.36446,0.183494 -0.54669,0.27524 -1.70019,0.55815 -3.51182,0.562706 -5.28256,0.610698 -2.06485,0.0026 -4.13709,0.115981 -6.18885,-0.153841 -1.42308,-0.244632 -2.72245,-0.829041 -3.9966,-1.479222 0,0 3.02563,2.418408 3.02563,2.418408 v 0 c 1.28567,0.61763 2.61157,1.143127 4.03531,1.341323 2.06332,0.204269 4.13693,0.113118 6.20756,0.101219 1.83151,-0.04451 3.71141,-0.06267 5.44941,-0.71129 0.19486,-0.108122 0.39833,-0.202006 0.58459,-0.324358 0.89109,-0.585343 1.50179,-1.515625 2.09462,-2.376685 0.59636,-1.147348 1.00821,-2.227035 1.15965,-3.524161 0.19752,-1.266952 0.40189,-2.542455 0.78826,-3.767515 0.12042,-0.617496 0.24592,-1.237231 0.48178,-1.823119 0.34303,-0.979569 0.62685,-1.985497 0.86518,-2.995192 0.16198,-1.298961 0.3315,-2.596213 0.56451,-3.884726 0.4113,-1.911501 1.09622,-3.750902 1.99237,-5.489503 0.89486,-1.742112 1.83756,-3.465002 2.91425,-5.102241 0.92719,-1.37871 1.88833,-2.590316 3.31975,-3.482642 0.17311,-0.10491 0.33725,-0.226293 0.51932,-0.314735 0.95108,-0.461991 2.07253,-0.369737 3.09414,-0.360839 1.81699,0.07994 3.64412,0.207526 5.41181,0.66412 0.61136,0.180243 1.01825,0.286354 1.61173,0.515533 0.880761,0.340114 1.709041,0.803053 2.583311,1.158687 0,0 -3.093911,-2.451875 -3.093911,-2.451875 z"
       inkscape:connector-curvature="0" />
    <path
       style="fill:#008000;stroke-width:0.26458332"
       id="path49-8"
       d="m 97.593619,36.902877 c -1.60007,0.01439 -3.19431,0.172625 -4.78836,0.29895 -2.12747,0.267099 -4.26563,0.747622 -6.22931,1.631151 -0.39361,0.177101 -0.7716,0.387056 -1.15741,0.580586 -1.28172,0.658974 -2.57283,1.419812 -3.51103,2.542738 -0.5636,0.674561 -0.84435,1.254072 -1.28249,2.022372 -1.26473,2.525392 -2.26039,5.179134 -3.19759,7.840575 -0.58729,1.549553 -1.0578,3.140998 -1.68198,4.677206 -0.25729,0.633225 -0.73315,1.665011 -1.01361,2.283079 -0.85722,1.902647 -1.67299,3.823011 -2.53925,5.721587 -0.42784,0.947137 -0.65022,1.96959 -1.00299,2.944585 -0.2381,0.594059 -0.61023,1.08983 -1.21576,1.322113 -1.13852,0.259768 -2.32529,0.230491 -3.48698,0.246366 -1.04919,-0.02434 -2.10545,0.08093 -3.14496,-0.107502 -0.68416,-0.124013 -1.18617,-0.301281 -1.85333,-0.506283 -1.83593,-0.702294 -3.63091,-1.50208 -5.47176,-2.191901 -0.97117,-0.277514 -1.86292,-0.765442 -2.82849,-1.052992 -0.62563,-0.06759 -1.16096,-0.386117 -1.75799,-0.56058 -0.40173,-0.154737 -0.82092,-0.247642 -1.2429,-0.325395 0,0 3.14505,2.386441 3.14505,2.386441 v 0 c 0.41369,0.09875 0.82082,0.218006 1.22125,0.362151 0.57683,0.208401 1.14423,0.427109 1.74728,0.551751 0.91736,0.323893 1.80793,0.723599 2.7405,1.006801 1.83263,0.690284 3.61552,1.503756 5.46438,2.151583 0.78405,0.223888 1.11851,0.348293 1.91443,0.467226 1.05668,0.157898 2.12255,0.06673 3.18544,0.07906 1.21719,-0.01233 2.48705,0.059 3.65602,-0.3312 0.65572,-0.352939 1.10282,-0.897258 1.36543,-1.598515 0.32742,-0.977307 0.56612,-1.9851 0.94162,-2.94635 0.78805,-1.933649 1.5518,-3.877699 2.43844,-5.769298 0.0823,-0.179289 0.96899,-2.105003 1.04718,-2.29627 0.62853,-1.537486 1.05212,-3.152958 1.65236,-4.700876 0.92252,-2.640029 1.86078,-5.294289 3.17479,-7.769508 0.47751,-0.785519 0.69744,-1.227143 1.28487,-1.910437 0.92443,-1.075294 2.14159,-1.835762 3.39238,-2.471301 0.37783,-0.186135 0.74792,-0.388893 1.13351,-0.558409 1.95428,-0.859171 4.07992,-1.294646 6.19336,-1.517123 1.63417,-0.113004 3.27162,-0.239737 4.910951,-0.175234 0,0 -3.203051,-2.327145 -3.203051,-2.327145 z"
       inkscape:connector-curvature="0" />
    <path
       style="fill:#008000;stroke-width:0.26458332"
       id="path51-1"
       d="m 98.157609,38.504662 c -1.89169,-0.02397 -3.63227,0.75706 -5.3185,1.524772 -2.85417,1.377969 -5.30914,3.410633 -7.48096,5.697903 -0.49573,0.522094 -0.96435,1.069292 -1.44653,1.603936 -1.60296,2.015479 -2.89476,4.239686 -4.13005,6.490692 -0.98782,1.800042 -1.50309,2.740469 -2.32434,4.616085 -0.33592,0.767193 -0.62963,1.55218 -0.94444,2.328269 -1.24917,3.391005 -2.20132,6.876962 -3.294,10.318427 -0.40763,1.285256 -0.87751,2.561039 -1.59116,3.712308 -0.43392,0.700008 -0.59503,0.849622 -1.11646,1.475494 -1.24792,1.463706 -3.04841,2.26034 -4.71263,3.154113 -1.29354,0.748483 -2.69741,1.11881 -4.16931,1.273337 -1.10278,0.07626 -2.17248,-0.269023 -3.15507,-0.749673 -0.26758,-0.130884 -1.03803,-0.584536 -0.77405,-0.44654 0.84405,0.44123 1.6765,0.90433 2.51475,1.356495 -0.74695,-0.556422 -1.43185,-1.187448 -2.11664,-1.816643 0,0 -3.5509,-1.454083 -3.5509,-1.454083 v 0 c 0.68826,0.637328 1.37475,1.277918 2.10975,1.862034 1.77104,1.080063 4.24964,2.978666 6.55457,3.427603 0.68655,0.133723 0.9037,0.08822 1.57967,0.06193 1.51467,-0.197916 2.88335,-0.636125 4.20505,-1.424284 1.70586,-0.921128 3.53092,-1.7595 4.79786,-3.275835 1.33381,-1.639091 2.19723,-3.293629 2.73457,-5.347984 0.95781,-3.487729 1.84727,-6.996771 3.05761,-10.409224 0.30928,-0.771983 0.59802,-1.552519 0.92786,-2.315945 0.78473,-1.816306 1.33594,-2.86465 2.29207,-4.6036 1.22572,-2.229239 2.53307,-4.417626 4.17487,-6.372161 0.48224,-0.527159 0.95066,-1.067321 1.44675,-1.581481 2.17734,-2.256656 4.63996,-4.235647 7.52653,-5.508023 1.72874,-0.722321 3.49816,-1.430779 5.411221,-1.267113 0,0 -3.208091,-2.33081 -3.208091,-2.330809 z"
       inkscape:connector-curvature="0" />
    <path
       style="fill:#008000;stroke-width:0.26458332"
       id="path53-9"
       d="m 103.45224,39.225862 c -2.17657,-1.531549 -4.503631,-2.864485 -6.889971,-4.039622 -1.81516,-0.893532 -3.74902,-1.48468 -5.69469,-2.013741 -1.57709,-0.43293 -3.19649,-0.644774 -4.8264,-0.720566 -0.95307,0.01498 -1.9206,-0.11289 -2.87151,0.0013 -0.5312,0.06385 -0.79014,0.161142 -1.29639,0.308718 -1.7472,0.713013 -2.34859,2.310072 -2.91962,3.976217 -0.78117,2.428248 -0.85795,4.980384 -1.16098,7.489677 -0.07,0.579471 -0.1596,1.156403 -0.2394,1.734605 -0.38915,2.748606 -0.94589,5.466138 -1.55458,8.172545 -0.14982,0.666163 -0.26651,1.340147 -0.43873,2.000877 -0.17785,0.68239 -0.40714,1.350333 -0.61071,2.0255 -0.91214,2.33876 -2.08157,4.651033 -4.07994,6.256522 -1.23282,0.990444 -1.76032,1.105792 -3.20318,1.737974 -0.62205,0.179488 -1.23545,0.392216 -1.86613,0.538459 -2.15913,0.50066 -4.3917,0.688811 -6.58983,0.921845 -4.05458,0.42985 -0.2946,0.04838 -4.17144,0.435631 -1.58057,0.111903 -3.16063,0.316495 -4.74637,0.354526 -0.67124,0.01611 -1.59672,0.0217 -2.25019,-0.223533 -0.31437,-0.117975 -0.57738,-0.342974 -0.86607,-0.514464 0.82924,0.437952 1.61579,0.968618 2.48771,1.313855 0.27167,0.107563 -0.441,-0.383805 -0.65123,-0.586711 -0.84026,-0.810956 -1.58645,-1.728386 -2.36492,-2.597322 -0.18826,-0.219136 -0.37651,-0.438269 -0.56476,-0.657405 0,0 -3.53509,-1.4961 -3.53509,-1.4961 v 0 c 0.19104,0.223203 0.38208,0.446403 0.57312,0.669602 0.59274,0.663975 1.17201,1.340377 1.76758,2.001732 0.18992,0.21091 1.00182,1.103979 1.22634,1.253167 1.31554,0.874128 2.69003,1.65612 4.03505,2.484179 0.30992,0.137451 0.60305,0.321847 0.92978,0.412355 0.67579,0.187198 1.57362,0.154276 2.25512,0.119071 1.55495,-0.08033 3.10308,-0.289703 4.65183,-0.437989 2.12629,-0.23472 4.25649,-0.453027 6.37998,-0.71125 1.25353,-0.152432 3.17737,-0.39692 4.42654,-0.694727 0.64475,-0.153713 1.26987,-0.38046 1.9048,-0.570688 1.50505,-0.681363 2.00473,-0.786156 3.28547,-1.83891 2.02938,-1.668121 3.18845,-4.044801 4.11809,-6.443509 0.21301,-0.681503 0.45641,-1.35424 0.63903,-2.044506 0.17449,-0.659551 0.28427,-1.334559 0.43121,-2.000793 0.59792,-2.711151 1.15174,-5.431483 1.62442,-8.167923 0.0891,-0.5789 0.19109,-1.155975 0.26745,-1.736698 0.3245,-2.467607 0.37623,-4.990404 1.1922,-7.370133 0.56974,-1.494565 1.18344,-3.046859 2.82151,-3.60653 1.35271,-0.347564 2.69536,-0.290094 4.08134,-0.217731 1.59677,0.103309 3.18467,0.311817 4.7285,0.749316 1.94505,0.542028 3.87067,1.171054 5.6739,2.093262 1.711841,0.878012 0.833101,0.445045 -1.81385,-1.114343 -0.20905,-0.123156 0.42465,0.235032 0.63274,0.359807 0.36652,0.219776 0.69536,0.446243 1.05024,0.681603 0.11631,0.07713 0.23304,0.153604 0.34955,0.230405 0,0 3.672481,1.482333 3.672481,1.482333 z"
       inkscape:connector-curvature="0" />
  </g>
  <g
     inkscape:groupmode="layer"
     id="layer4"
     inkscape:label="eyes">
    <path
       style="fill:#008000;stroke-width:0.36350149"
       id="path80"
       sodipodi:type="arc"
       sodipodi:cx="93.326538"
       sodipodi:cy="53.74575"
       sodipodi:rx="4.2270613"
       sodipodi:ry="3.4448602"
       sodipodi:start="0.95797617"
       sodipodi:end="3.1374388"
       d="M 95.757845,56.563747 A 4.2270613,3.4448602 0 0 1 91.38616,56.806223 4.2270613,3.4448602 0 0 1 89.099513,53.76006 l 4.227025,-0.01431 z" />
    <path
       style="fill:#ffcc00;stroke-width:0.36350149"
       id="path80-5"
       sodipodi:type="arc"
       sodipodi:cx="-101.97249"
       sodipodi:cy="53.703465"
       sodipodi:rx="4.2270613"
       sodipodi:ry="3.4448602"
       sodipodi:start="0.95797617"
       sodipodi:end="3.1374388"
       d="m -99.541181,56.521461 a 4.2270613,3.4448602 0 0 1 -4.371689,0.242476 4.2270613,3.4448602 0 0 1 -2.28664,-3.046163 l 4.22702,-0.01431 z"
       transform="scale(-1,1)" />
  </g>
</svg>
