<?xml version="1.0" encoding="UTF-8" standalone="no"?>
<!-- Created with Inkscape (http://www.inkscape.org/) -->

<svg
   xmlns:dc="http://purl.org/dc/elements/1.1/"
   xmlns:cc="http://creativecommons.org/ns#"
   xmlns:rdf="http://www.w3.org/1999/02/22-rdf-syntax-ns#"
   xmlns:svg="http://www.w3.org/2000/svg"
   xmlns="http://www.w3.org/2000/svg"
   xmlns:sodipodi="http://sodipodi.sourceforge.net/DTD/sodipodi-0.dtd"
   xmlns:inkscape="http://www.inkscape.org/namespaces/inkscape"
   width="210mm"
   height="297mm"
   viewBox="0 0 210 297"
   version="1.1"
   id="svg8"
   inkscape:version="0.92.2 (5c3e80d, 2017-08-06)"
   sodipodi:docname="elf.svg">
  <defs
     id="defs2" />
  <sodipodi:namedview
     id="base"
     pagecolor="#ffffff"
     bordercolor="#666666"
     borderopacity="1.0"
     inkscape:pageopacity="0.0"
     inkscape:pageshadow="2"
     inkscape:zoom="1.4"
     inkscape:cx="400"
     inkscape:cy="900.20916"
     inkscape:document-units="mm"
     inkscape:current-layer="layer5"
     showgrid="false"
     inkscape:measure-start="457.262,902.066"
     inkscape:measure-end="718.218,903.076"
     inkscape:window-width="1366"
     inkscape:window-height="705"
     inkscape:window-x="-8"
     inkscape:window-y="-8"
     inkscape:window-maximized="1" />
  <metadata
     id="metadata5">
    <rdf:RDF>
      <cc:Work
         rdf:about="">
        <dc:format>image/svg+xml</dc:format>
        <dc:type
           rdf:resource="http://purl.org/dc/dcmitype/StillImage" />
        <dc:title />
      </cc:Work>
    </rdf:RDF>
  </metadata>
  <g
     inkscape:groupmode="layer"
     id="layer5"
     inkscape:label="background">
    <rect
       style="fill:#2b2200;stroke-width:0.18812025"
       id="rect25"
       width="92.956657"
       height="51.548801"
       x="42.358829"
       y="31.705662"
       ry="0" />
  </g>
  <g
     inkscape:label="Layer 1"
     inkscape:groupmode="layer"
     id="layer1">
    <path
       style="fill:#ffcc00;stroke-width:0.24263732"
       id="path64-2"
       sodipodi:type="arc"
       sodipodi:cx="55.096436"
       sodipodi:cy="-88.810677"
       sodipodi:rx="18.307962"
       sodipodi:ry="16.071108"
       sodipodi:start="0"
       sodipodi:end="3.1374316"
       d="M 73.404398,-88.810677 A 18.307962,16.071108 0 0 1 55.134526,-72.739603 18.307962,16.071108 0 0 1 36.788632,-88.743804 l 18.307804,-0.06687 z"
       transform="rotate(90)" />
  </g>
  <g
     inkscape:groupmode="layer"
     id="layer2"
     inkscape:label="ears">
    <path
       sodipodi:type="star"
       style="fill:#ffcc00;stroke-width:0.26458332"
       id="path112-4-0"
       sodipodi:sides="3"
       sodipodi:cx="-157.2213"
       sodipodi:cy="-19.574232"
       sodipodi:r1="5.3453903"
       sodipodi:r2="2.6726952"
       sodipodi:arg1="0"
       sodipodi:arg2="1.0471976"
       inkscape:flatsided="true"
       inkscape:rounded="1"
       inkscape:randomized="0"
       d="m -151.87591,-19.574232 c 0,9.258488 0,9.258488 -8.01808,4.629244 -8.01809,-4.629244 -8.01809,-4.629244 0,-9.258488 8.01808,-4.629244 8.01808,-4.629244 8.01808,4.629244 z"
       inkscape:transform-center-x="2.7011499"
       transform="matrix(1.8117798,-0.44587102,-0.16747246,-0.96218587,351.32967,-32.791056)"
       inkscape:transform-center-y="-1.5814223" />
    <path
       style="fill:#008000;stroke-width:0.24510072"
       d="m 88.810679,55.096437 v -18.19356 h 1.087903 c 0.598339,0 1.867325,0.237035 2.819955,0.526743 7.084239,2.15442 11.884723,9.220237 11.898893,17.513948 0.005,3.092987 -0.32922,4.75792 -1.58045,7.866415 -2.28847,5.685369 -7.104116,9.522687 -12.933869,10.306297 l -1.292432,0.17371 z"
       id="path42"
       inkscape:connector-curvature="0" />
    <path
       style="fill:#008000;stroke-width:0.24510072"
       d="m 100.63686,61.663303 c -0.931176,-0.262069 -1.759332,-1.165383 -1.906244,-2.079257 -0.224242,-1.39483 1.01419,-8.998715 1.776864,-10.909812 0.78226,-1.960176 2.37242,-1.9865 6.09602,-0.100916 4.71811,2.389189 16.14317,9.299755 17.15285,10.37508 l 1.00186,1.066993 -0.82876,0.418206 c -1.93931,0.978604 -20.67102,1.967523 -23.29259,1.229706 z"
       id="path44"
       inkscape:connector-curvature="0" />
  </g>
  <g
     inkscape:groupmode="layer"
     id="layer3"
     inkscape:label="hair">
    <path
       style="fill:#ffcc00;stroke-width:0.24263732"
       id="path47"
       d="m 87.825715,36.331116 c 0.723284,-0.316166 1.388078,-0.789572 2.115861,-1.093343 0.335521,-0.140044 1.030925,-0.361106 1.370037,-0.472601 1.513957,-0.382633 3.060931,-0.523201 4.604398,-0.598091 0.902431,-0.02896 1.895875,-0.07393 2.710532,0.474237 0.163539,0.110048 0.30956,0.253404 0.464352,0.380105 1.212885,0.953664 2.039115,2.217854 2.813345,3.65424 0.89496,1.661388 1.73465,3.371469 2.46477,5.143733 0.72945,1.780595 1.35804,3.622265 1.7424,5.551683 0.25469,1.28519 0.36641,2.596108 0.51254,3.902083 0.19572,0.97818 0.43169,1.95403 0.73054,2.895515 0.23028,0.597297 0.33634,1.236475 0.43297,1.878449 0.26438,1.25194 0.44183,2.528785 0.62565,3.80093 0.12462,1.230149 0.45765,2.31996 0.93362,3.411061 0.46789,0.815166 0.9604,1.702806 1.68571,2.228713 0.1465,0.106217 0.30651,0.183496 0.45976,0.275243 1.42984,0.558149 2.9534,0.562703 4.44258,0.610696 1.73651,0.0026 3.47924,0.11598 5.20475,-0.15384 1.1968,-0.244631 2.28955,-0.829042 3.3611,-1.479224 0,0 -2.54452,2.418408 -2.54452,2.418408 v 0 c -1.08124,0.61763 -2.1963,1.143127 -3.39365,1.341326 -1.73523,0.204269 -3.47912,0.113115 -5.22049,0.101217 -1.54028,-0.04451 -3.12126,-0.06267 -4.5829,-0.71129 -0.16387,-0.10812 -0.33499,-0.202007 -0.49163,-0.324356 -0.7494,-0.585345 -1.26299,-1.515628 -1.76155,-2.376686 -0.50154,-1.147347 -0.8479,-2.227037 -0.97526,-3.52416 -0.16611,-1.266954 -0.33798,-2.542455 -0.66291,-3.767518 -0.10128,-0.617493 -0.20682,-1.237229 -0.40518,-1.823117 -0.28848,-0.979569 -0.52717,-1.985497 -0.7276,-2.995192 -0.13623,-1.298961 -0.27879,-2.596213 -0.47475,-3.884726 -0.3459,-1.911501 -0.92191,-3.750902 -1.67556,-5.489503 -0.75257,-1.742112 -1.54537,-3.465002 -2.450853,-5.102241 -0.779756,-1.37871 -1.588064,-2.590316 -2.791873,-3.482642 -0.145583,-0.10491 -0.283623,-0.226293 -0.436742,-0.314735 -0.799848,-0.461991 -1.742975,-0.369737 -2.602138,-0.360839 -1.528068,0.07994 -3.064663,0.207526 -4.551271,0.66412 -0.514147,0.180243 -0.856337,0.286354 -1.355447,0.515533 -0.740709,0.340114 -1.437284,0.803053 -2.172535,1.158687 0,0 2.601944,-2.451875 2.601944,-2.451875 z"
       inkscape:connector-curvature="0" />
    <path
       style="fill:#ffcc00;stroke-width:0.24263732"
       id="path49"
       d="m 88.743806,36.788631 c 1.345641,0.01439 2.686378,0.172625 4.026956,0.29895 1.789179,0.267099 3.587348,0.747622 5.238781,1.631151 0.331022,0.177101 0.648907,0.387056 0.973369,0.580586 1.077908,0.658974 2.163718,1.419812 2.952738,2.542738 0.47398,0.674561 0.71009,1.254072 1.07856,2.022372 1.06362,2.525392 1.90096,5.179134 2.68914,7.840575 0.4939,1.549553 0.8896,3.140998 1.41452,4.677206 0.21638,0.633225 0.61658,1.66501 0.85244,2.283079 0.72091,1.902648 1.40697,3.82301 2.13548,5.721588 0.35981,0.947137 0.54683,1.96959 0.8435,2.944585 0.20024,0.594056 0.5132,1.089827 1.02244,1.322112 0.95749,0.259766 1.95555,0.23049 2.93252,0.246367 0.88235,-0.02434 1.77066,0.08093 2.64487,-0.107503 0.57537,-0.124013 0.99756,-0.301281 1.55863,-0.506285 1.544,-0.702292 3.05356,-1.502077 4.60169,-2.191901 0.81675,-0.277511 1.5667,-0.76544 2.37873,-1.052989 0.52615,-0.06759 0.97636,-0.386119 1.47845,-0.560583 0.33785,-0.154734 0.69039,-0.247642 1.04527,-0.325395 0,0 -2.64495,2.386441 -2.64495,2.386441 v 0 c -0.34791,0.09875 -0.69031,0.218006 -1.02706,0.362151 -0.48511,0.208402 -0.96229,0.427109 -1.46945,0.551754 -0.77149,0.32389 -1.52044,0.723596 -2.30473,1.0068 -1.54122,0.690285 -3.04061,1.503755 -4.59548,2.151582 -0.65938,0.22389 -0.94065,0.348294 -1.61001,0.467227 -0.88866,0.157898 -1.78505,0.06673 -2.67892,0.07906 -1.02365,-0.01233 -2.09159,0.059 -3.07468,-0.3312 -0.55145,-0.352939 -0.92746,-0.897258 -1.14831,-1.598515 -0.27535,-0.977307 -0.4761,-1.9851 -0.79189,-2.94635 -0.66274,-1.933649 -1.30505,-3.877699 -2.0507,-5.769297 -0.0692,-0.17929 -0.81491,-2.105004 -0.88067,-2.296271 -0.52858,-1.537486 -0.88482,-3.152958 -1.38961,-4.700876 -0.77583,-2.640029 -1.5649,-5.294289 -2.66997,-7.769508 -0.401579,-0.785519 -0.586537,-1.227143 -1.08056,-1.910437 -0.777435,-1.075294 -1.801053,-1.835762 -2.852954,-2.471301 -0.317751,-0.186135 -0.628992,-0.388893 -0.953269,-0.558409 -1.643528,-0.859171 -3.431168,-1.294646 -5.208546,-1.517123 -1.374319,-0.113004 -2.751396,-0.239737 -4.130055,-0.175234 0,0 2.69373,-2.327145 2.69373,-2.327145 z"
       inkscape:connector-curvature="0" />
    <path
       style="fill:#ffcc00;stroke-width:0.24263732"
       id="path51"
       d="m 88.269497,38.390416 c 1.59089,-0.02397 3.054697,0.75706 4.472798,1.524772 2.400325,1.377969 4.464928,3.410633 6.291405,5.697903 0.416903,0.522094 0.811007,1.069292 1.21652,1.603936 1.34807,2.015479 2.43446,4.239686 3.47332,6.490692 0.83075,1.800042 1.26408,2.740469 1.95475,4.616085 0.2825,0.767191 0.52951,1.552178 0.79426,2.328267 1.05054,3.391008 1.85129,6.876965 2.77022,10.318427 0.34281,1.285258 0.73797,2.561042 1.33815,3.712308 0.36492,0.700008 0.50041,0.849624 0.93893,1.475494 1.04948,1.463709 2.56368,2.260343 3.96327,3.154116 1.08785,0.74848 2.26849,1.118809 3.50634,1.273336 0.92743,0.07626 1.82703,-0.269025 2.65338,-0.749673 0.22503,-0.130886 0.87297,-0.584538 0.65097,-0.446542 -0.70984,0.441232 -1.40992,0.90433 -2.11488,1.356495 0.62818,-0.556419 1.20417,-1.187445 1.78007,-1.81664 0,0 2.98627,-1.454084 2.98627,-1.454084 v 0 c -0.57882,0.637326 -1.15615,1.277919 -1.77428,1.862032 -1.48942,1.080066 -3.5739,2.978666 -5.51232,3.427605 -0.57738,0.133723 -0.76,0.08822 -1.32848,0.06193 -1.27383,-0.197916 -2.42487,-0.636124 -3.53641,-1.424283 -1.4346,-0.921129 -2.96946,-1.759501 -4.03494,-3.275836 -1.12172,-1.639091 -1.84785,-3.293628 -2.29975,-5.347983 -0.8055,-3.487729 -1.55353,-6.996771 -2.57141,-10.409224 -0.2601,-0.771983 -0.50293,-1.552519 -0.78032,-2.315946 -0.65995,-1.816306 -1.12351,-2.864649 -1.92761,-4.603599 -1.03081,-2.229239 -2.130282,-4.417626 -3.511017,-6.372161 -0.405559,-0.527159 -0.799495,-1.067321 -1.216701,-1.581481 -1.831119,-2.256657 -3.902155,-4.235648 -6.329727,-5.508024 -1.453852,-0.722321 -2.941914,-1.430779 -4.550777,-1.267113 0,0 2.697969,-2.33081 2.697969,-2.330809 z"
       inkscape:connector-curvature="0" />
    <path
       style="fill:#ffcc00;stroke-width:0.24263732"
       id="path53"
       d="m 83.816766,39.111616 c 1.830476,-1.531549 3.787508,-2.864485 5.794394,-4.039622 1.526528,-0.893532 3.152883,-1.48468 4.78917,-2.013741 1.326315,-0.43293 2.688213,-0.644774 4.058949,-0.720566 0.801521,0.01498 1.615201,-0.11289 2.414911,0.0013 0.44673,0.06385 0.6645,0.161142 1.09025,0.308718 1.46937,0.713013 1.97514,2.310072 2.45537,3.976217 0.65695,2.428248 0.72152,4.980384 0.97637,7.489677 0.0589,0.579471 0.13422,1.156403 0.20133,1.734605 0.32727,2.748606 0.79548,5.466138 1.30738,8.172545 0.126,0.666163 0.22414,1.340147 0.36897,2.000877 0.14957,0.68239 0.3424,1.350333 0.5136,2.0255 0.7671,2.33876 1.75058,4.651033 3.43119,6.256522 1.03678,0.990444 1.48041,1.105792 2.69384,1.737974 0.52313,0.179488 1.039,0.392216 1.56939,0.538459 1.8158,0.50066 3.69337,0.688811 5.54197,0.921845 3.40986,0.42985 0.24776,0.04838 3.50814,0.435631 1.32924,0.111903 2.65805,0.316495 3.99164,0.354526 0.56451,0.01611 1.34283,0.0217 1.89239,-0.223533 0.26438,-0.117975 0.48557,-0.342974 0.72835,-0.514464 -0.69738,0.437952 -1.35886,0.968619 -2.09213,1.313855 -0.22847,0.107564 0.37087,-0.383805 0.54768,-0.586711 0.70664,-0.810956 1.33418,-1.728385 1.98887,-2.597322 0.15832,-0.219136 0.31664,-0.438269 0.47495,-0.657405 0,0 2.97298,-1.4961 2.97298,-1.4961 v 0 c -0.16067,0.223203 -0.32133,0.446403 -0.48199,0.669603 -0.49849,0.663974 -0.98565,1.340376 -1.48652,2.001731 -0.15972,0.21091 -0.84252,1.10398 -1.03134,1.253167 -1.10635,0.874128 -2.26228,1.65612 -3.39343,2.484179 -0.26064,0.137451 -0.50716,0.321847 -0.78193,0.412355 -0.56834,0.187198 -1.3234,0.154276 -1.89653,0.119071 -1.3077,-0.08033 -2.60966,-0.289703 -3.91214,-0.437989 -1.78819,-0.23472 -3.57966,-0.453027 -5.36549,-0.71125 -1.05421,-0.152432 -2.67214,-0.39692 -3.72268,-0.694727 -0.54222,-0.153712 -1.06794,-0.38046 -1.60191,-0.570688 -1.26573,-0.681363 -1.68596,-0.786156 -2.76305,-1.838909 -1.70668,-1.668122 -2.68145,-4.044802 -3.46326,-6.443509 -0.17914,-0.681504 -0.38384,-1.354241 -0.53742,-2.044507 -0.14675,-0.659551 -0.23907,-1.334559 -0.36264,-2.000793 -0.50285,-2.711151 -0.96861,-5.431483 -1.36612,-8.167923 -0.0749,-0.5789 -0.16071,-1.155975 -0.22493,-1.736698 -0.2729,-2.467607 -0.3164,-4.990404 -1.00262,-7.370133 -0.47915,-1.494565 -0.99526,-3.046859 -2.372862,-3.60653 -1.137614,-0.347564 -2.266768,-0.290094 -3.432362,-0.217731 -1.342866,0.103309 -2.678273,0.311817 -3.976617,0.749316 -1.635763,0.542028 -3.255189,1.171054 -4.771685,2.093262 -1.439639,0.878012 -0.700628,0.445045 1.525428,-1.114343 0.175808,-0.123156 -0.357126,0.235032 -0.532128,0.359807 -0.308239,0.219776 -0.58479,0.446243 -0.88324,0.681603 -0.09781,0.07713 -0.195984,0.153604 -0.293968,0.230405 0,0 -3.08852,1.482333 -3.08852,1.482333 z"
       inkscape:connector-curvature="0" />
    <path
       style="fill:#008000;stroke-width:0.24263732"
       id="path47-7"
       d="m 89.72877,36.445362 c -0.723284,-0.316166 -1.388078,-0.789572 -2.115861,-1.093343 -0.335521,-0.140044 -1.030927,-0.361106 -1.370039,-0.472601 -1.513956,-0.382633 -3.06093,-0.523201 -4.604397,-0.598091 -0.902432,-0.02896 -1.895876,-0.07393 -2.710533,0.474237 -0.163539,0.110048 -0.30956,0.253404 -0.464352,0.380105 -1.212883,0.953664 -2.039113,2.217854 -2.813344,3.65424 -0.894964,1.661388 -1.734649,3.371469 -2.46477,5.143733 -0.729449,1.780595 -1.358038,3.622265 -1.742403,5.551683 -0.254685,1.28519 -0.366411,2.596108 -0.512541,3.902083 -0.195715,0.97818 -0.431688,1.95403 -0.730534,2.895515 -0.230279,0.597297 -0.336345,1.236476 -0.432974,1.878449 -0.264382,1.251942 -0.441831,2.528786 -0.625646,3.800929 -0.124626,1.230152 -0.457658,2.319962 -0.933624,3.411062 -0.467892,0.815168 -0.960401,1.702808 -1.685712,2.228715 -0.1465,0.106217 -0.306506,0.183494 -0.45976,0.27524 -1.429841,0.55815 -2.953402,0.562706 -4.442575,0.610698 -1.736516,0.0026 -3.479247,0.115981 -5.204754,-0.153841 -1.196795,-0.244632 -2.289551,-0.829041 -3.361097,-1.479222 0,0 2.544522,2.418408 2.544522,2.418408 v 0 c 1.081234,0.61763 2.196301,1.143127 3.393651,1.341323 1.735229,0.204269 3.479112,0.113118 5.220489,0.101219 1.54028,-0.04451 3.121255,-0.06267 4.582894,-0.71129 0.163875,-0.108122 0.334991,-0.202006 0.491634,-0.324358 0.749397,-0.585343 1.262989,-1.515625 1.761552,-2.376685 0.501533,-1.147348 0.847894,-2.227035 0.975253,-3.524161 0.166112,-1.266952 0.337985,-2.542455 0.662918,-3.767515 0.101272,-0.617496 0.206816,-1.237231 0.405172,-1.823119 0.288484,-0.979569 0.527174,-1.985497 0.727607,-2.995192 0.136223,-1.298961 0.278788,-2.596213 0.474746,-3.884726 0.345899,-1.911501 0.921909,-3.750902 1.675562,-5.489503 0.752567,-1.742112 1.545367,-3.465002 2.450852,-5.102241 0.779756,-1.37871 1.588064,-2.590316 2.791873,-3.482642 0.145584,-0.10491 0.283623,-0.226293 0.436742,-0.314735 0.799848,-0.461991 1.742975,-0.369737 2.602138,-0.360839 1.528069,0.07994 3.064665,0.207526 4.551273,0.66412 0.514147,0.180243 0.856337,0.286354 1.355447,0.515533 0.74071,0.340114 1.437284,0.803053 2.172536,1.158687 0,0 -2.601945,-2.451875 -2.601945,-2.451875 z"
       inkscape:connector-curvature="0" />
    <path
       style="fill:#008000;stroke-width:0.24263732"
       id="path49-8"
       d="m 88.810679,36.902877 c -1.345641,0.01439 -2.68638,0.172625 -4.026958,0.29895 -1.789179,0.267099 -3.587348,0.747622 -5.238781,1.631151 -0.331022,0.177101 -0.648907,0.387056 -0.973369,0.580586 -1.077913,0.658974 -2.163722,1.419812 -2.952738,2.542738 -0.473981,0.674561 -0.710089,1.254072 -1.07856,2.022372 -1.063624,2.525392 -1.900963,5.179134 -2.689138,7.840575 -0.493904,1.549553 -0.889598,3.140998 -1.414526,4.677206 -0.216378,0.633225 -0.616571,1.665011 -0.852435,2.283079 -0.720913,1.902647 -1.406966,3.823011 -2.135481,5.721587 -0.359809,0.947137 -0.546828,1.96959 -0.843504,2.944585 -0.200239,0.594059 -0.513197,1.08983 -1.022441,1.322113 -0.957483,0.259768 -1.955543,0.230491 -2.932512,0.246366 -0.882357,-0.02434 -1.77066,0.08093 -2.644876,-0.107502 -0.575371,-0.124013 -0.997556,-0.301281 -1.55863,-0.506283 -1.543997,-0.702294 -3.053556,-1.50208 -4.60169,-2.191901 -0.816743,-0.277514 -1.566695,-0.765442 -2.378729,-1.052992 -0.526148,-0.06759 -0.976355,-0.386117 -1.47845,-0.56058 -0.337851,-0.154737 -0.690385,-0.247642 -1.045266,-0.325395 0,0 2.644953,2.386441 2.644953,2.386441 v 0 c 0.347909,0.09875 0.6903,0.218006 1.027058,0.362151 0.485107,0.208401 0.962284,0.427109 1.469443,0.551751 0.771489,0.323893 1.520449,0.723599 2.30473,1.006801 1.541222,0.690284 3.040613,1.503756 4.595484,2.151583 0.659377,0.223888 0.940654,0.348293 1.610014,0.467226 0.888656,0.157898 1.785041,0.06673 2.67892,0.07906 1.023643,-0.01233 2.091582,0.059 3.074673,-0.3312 0.551453,-0.352939 0.927459,-0.897258 1.148311,-1.598515 0.275357,-0.977307 0.476101,-1.9851 0.791892,-2.94635 0.662742,-1.933649 1.305047,-3.877699 2.050701,-5.769298 0.06921,-0.179289 0.81491,-2.105003 0.880667,-2.29627 0.528587,-1.537486 0.884822,-3.152958 1.389617,-4.700876 0.775829,-2.640029 1.564895,-5.294289 2.669963,-7.769508 0.401581,-0.785519 0.586539,-1.227143 1.080562,-1.910437 0.777435,-1.075294 1.801053,-1.835762 2.852954,-2.471301 0.317751,-0.186135 0.628992,-0.388893 0.953269,-0.558409 1.643528,-0.859171 3.431168,-1.294646 5.208548,-1.517123 1.374319,-0.113004 2.751396,-0.239737 4.130055,-0.175234 0,0 -2.69373,-2.327145 -2.69373,-2.327145 z"
       inkscape:connector-curvature="0" />
    <path
       style="fill:#008000;stroke-width:0.24263732"
       id="path51-1"
       d="m 89.284988,38.504662 c -1.59089,-0.02397 -3.054699,0.75706 -4.4728,1.524772 -2.400325,1.377969 -4.464928,3.410633 -6.291405,5.697903 -0.416903,0.522094 -0.811007,1.069292 -1.216515,1.603936 -1.348072,2.015479 -2.434462,4.239686 -3.473327,6.490692 -0.830746,1.800042 -1.264082,2.740469 -1.954744,4.616085 -0.282505,0.767193 -0.529512,1.55218 -0.794264,2.328269 -1.050538,3.391005 -1.851286,6.876962 -2.770218,10.318427 -0.342812,1.285256 -0.737976,2.561039 -1.338148,3.712308 -0.364922,0.700008 -0.500413,0.849622 -0.93893,1.475494 -1.049487,1.463706 -2.563679,2.26034 -3.96327,3.154113 -1.087853,0.748483 -2.268492,1.11881 -3.506344,1.273337 -0.927426,0.07626 -1.827032,-0.269023 -2.653379,-0.749673 -0.225032,-0.130884 -0.872972,-0.584536 -0.650967,-0.44654 0.709836,0.44123 1.409918,0.90433 2.114877,1.356495 -0.628177,-0.556422 -1.204171,-1.187448 -1.780071,-1.816643 0,0 -2.986268,-1.454083 -2.986268,-1.454083 v 0 c 0.578819,0.637328 1.156149,1.277918 1.774276,1.862034 1.489426,1.080063 3.573901,2.978666 5.512322,3.427603 0.577381,0.133723 0.760001,0.08822 1.328485,0.06193 1.27382,-0.197916 2.424865,-0.636125 3.5364,-1.424284 1.43461,-0.921128 2.969465,-1.7595 4.034948,-3.275835 1.121719,-1.639091 1.847846,-3.293629 2.299743,-5.347984 0.805508,-3.487729 1.553534,-6.996771 2.571416,-10.409224 0.260101,-0.771983 0.502928,-1.552519 0.78032,-2.315945 0.65995,-1.816306 1.123511,-2.86465 1.927606,-4.6036 1.030817,-2.229239 2.130284,-4.417626 3.51102,-6.372161 0.405558,-0.527159 0.799494,-1.067321 1.2167,-1.581481 1.831119,-2.256656 3.902156,-4.235647 6.329729,-5.508023 1.453851,-0.722321 2.941914,-1.430779 4.550777,-1.267113 0,0 -2.697969,-2.33081 -2.697969,-2.330809 z"
       inkscape:connector-curvature="0" />
    <path
       style="fill:#008000;stroke-width:0.24263732"
       id="path53-9"
       d="m 93.737715,39.225862 c -1.830472,-1.531549 -3.787504,-2.864485 -5.79439,-4.039622 -1.52653,-0.893532 -3.152885,-1.48468 -4.789172,-2.013741 -1.326315,-0.43293 -2.688213,-0.644774 -4.058949,-0.720566 -0.801521,0.01498 -1.615203,-0.11289 -2.414908,0.0013 -0.446733,0.06385 -0.664499,0.161142 -1.09025,0.308718 -1.469376,0.713013 -1.975138,2.310072 -2.455368,3.976217 -0.656955,2.428248 -0.721527,4.980384 -0.976371,7.489677 -0.05887,0.579471 -0.134222,1.156403 -0.201333,1.734605 -0.327271,2.748606 -0.795483,5.466138 -1.307385,8.172545 -0.125997,0.666163 -0.224132,1.340147 -0.368967,2.000877 -0.14957,0.68239 -0.3424,1.350333 -0.5136,2.0255 -0.7671,2.33876 -1.750578,4.651033 -3.431185,6.256522 -1.036788,0.990444 -1.48041,1.105792 -2.693839,1.737974 -0.523137,0.179488 -1.039,0.392216 -1.569395,0.538459 -1.815804,0.50066 -3.693371,0.688811 -5.541974,0.921845 -3.409857,0.42985 -0.247756,0.04838 -3.508135,0.435631 -1.329242,0.111903 -2.658055,0.316495 -3.991645,0.354526 -0.564506,0.01611 -1.342824,0.0217 -1.892385,-0.223533 -0.264382,-0.117975 -0.48557,-0.342974 -0.728356,-0.514464 0.697382,0.437952 1.358862,0.968618 2.092137,1.313855 0.228472,0.107563 -0.370876,-0.383805 -0.547677,-0.586711 -0.706649,-0.810956 -1.334187,-1.728386 -1.988872,-2.597322 -0.158324,-0.219136 -0.31664,-0.438269 -0.474957,-0.657405 0,0 -2.972971,-1.4961 -2.972971,-1.4961 v 0 c 0.160662,0.223203 0.321325,0.446403 0.481987,0.669602 0.498488,0.663975 0.985648,1.340377 1.486515,2.001732 0.159721,0.21091 0.84252,1.103979 1.031339,1.253167 1.106355,0.874128 2.262286,1.65612 3.393433,2.484179 0.260639,0.137451 0.507158,0.321847 0.781934,0.412355 0.568332,0.187198 1.323397,0.154276 1.896531,0.119071 1.307696,-0.08033 2.609656,-0.289703 3.912138,-0.437989 1.788187,-0.23472 3.579661,-0.453027 5.365493,-0.71125 1.054205,-0.152432 2.672133,-0.39692 3.722671,-0.694727 0.542228,-0.153713 1.067947,-0.38046 1.601916,-0.570688 1.265731,-0.681363 1.685956,-0.786156 2.763044,-1.83891 1.706686,-1.668121 2.681452,-4.044801 3.463269,-6.443509 0.179139,-0.681503 0.383835,-1.35424 0.537417,-2.044506 0.146744,-0.659551 0.239068,-1.334559 0.362643,-2.000793 0.502844,-2.711151 0.9686,-5.431483 1.366119,-8.167923 0.07493,-0.5789 0.160704,-1.155975 0.224922,-1.736698 0.272901,-2.467607 0.316406,-4.990404 1.002627,-7.370133 0.479146,-1.494565 0.99526,-3.046859 2.372859,-3.60653 1.137615,-0.347564 2.266768,-0.290094 3.432362,-0.217731 1.342866,0.103309 2.678273,0.311817 3.976617,0.749316 1.635765,0.542028 3.25519,1.171054 4.771687,2.093262 1.439639,0.878012 0.700629,0.445045 -1.525428,-1.114343 -0.175809,-0.123156 0.357126,0.235032 0.532128,0.359807 0.308239,0.219776 0.58479,0.446243 0.88324,0.681603 0.09781,0.07713 0.195984,0.153604 0.293968,0.230405 0,0 3.088516,1.482333 3.088516,1.482333 z"
       inkscape:connector-curvature="0" />
  </g>
  <g
     inkscape:groupmode="layer"
     id="layer4"
     inkscape:label="eyes">
    <path
       style="fill:#008000;stroke-width:0.33335069"
       id="path80"
       sodipodi:type="arc"
       sodipodi:cx="85.222115"
       sodipodi:cy="53.74575"
       sodipodi:rx="3.5549119"
       sodipodi:ry="3.4448602"
       sodipodi:start="0.95797617"
       sodipodi:end="3.1374388"
       d="m 87.266817,56.563747 a 3.5549119,3.4448602 0 0 1 -3.676539,0.242476 3.5549119,3.4448602 0 0 1 -1.923045,-3.046163 l 3.554882,-0.01431 z" />
    <path
       style="fill:#ffcc00;stroke-width:0.33335069"
       id="path80-5"
       sodipodi:type="arc"
       sodipodi:cx="-92.493263"
       sodipodi:cy="53.703465"
       sodipodi:rx="3.5549119"
       sodipodi:ry="3.4448602"
       sodipodi:start="0.95797617"
       sodipodi:end="3.1374388"
       d="m -90.448561,56.521461 a 3.5549119,3.4448602 0 0 1 -3.676539,0.242476 3.5549119,3.4448602 0 0 1 -1.923044,-3.046163 l 3.554881,-0.01431 z"
       transform="scale(-1,1)" />
  </g>
</svg>
